<?xml version="1.0" encoding="utf-8"?>
<!-- Generator: Adobe Illustrator 15.0.2, SVG Export Plug-In . SVG Version: 6.00 Build 0)  -->
<!DOCTYPE svg PUBLIC "-//W3C//DTD SVG 1.1//EN" "http://www.w3.org/Graphics/SVG/1.1/DTD/svg11.dtd">
<svg version="1.1" id="Layer_1" xmlns="http://www.w3.org/2000/svg" xmlns:xlink="http://www.w3.org/1999/xlink" x="0px" y="0px"
	 width="500px" height="200px" viewBox="0 0 500 200" enable-background="new 0 0 500 200" xml:space="preserve">
<path fill="#FFFFFF" d="M32.665,191.641c5.59-3.849,11.175-9.808,11.175-27.315v-47.765h6.251v44.701
	c0,27.153-17.426,31.539-17.426,31.539V191.641z"/>
<path fill="#FFFFFF" d="M69.226,122.105c1.86,0,3.396,1.531,3.396,3.395c0,1.862-1.536,3.395-3.396,3.395
	c-1.865,0-3.393-1.532-3.393-3.395C65.833,123.637,67.361,122.105,69.226,122.105 M66.329,136.428h5.794v36.34h-5.794V136.428z"/>
<path fill="#FFFFFF" d="M110.564,149.59c0-5.338-0.123-12.707-7.244-12.707c-8.688,0-11.793,10.969-11.793,19.537v16.347h-5.796
	v-36.339h5.796v13.327c0.701-4.883,3.059-14.032,12.745-14.032c7.495,0,12.088,5.508,12.088,13.867v23.177h-5.796V149.59z"/>
<path fill="#FFFFFF" d="M140.701,172.768c-1.736-0.125-13.533-1.24-13.533-4.843c0-2.732,9.686-3.769,12.169-3.972
	c-7.036-1.367-12.004-6.828-12.004-13.951c0-8.232,6.705-14.278,15.564-14.278c4.924,0,9.355,1.946,12.25,5.216
	c1.28-1.036,2.235-3.023,2.235-5.878h4.634c0,3.021-2.978,5.878-6.081,6.913c1.613,2.234,2.566,4.967,2.566,8.027
	c0,8.485-6.249,12.998-14.529,14.199c-3.394,0.497-11.425,1.612-11.425,3.724c0,2.071,5.918,3.312,12.998,4.347
	c10.595,1.534,16.435,5.01,16.435,9.936c0,5.836-8.901,10.098-18.876,10.098c-9.978,0-18.875-4.262-18.875-10.098
	c0-5.176,6.995-9.439,15.89-9.439H140.701z M156.348,182.207c0-5.219-5.547-8.901-13.244-8.901c-7.703,0-13.245,3.683-13.245,8.901
	c0,5.172,5.461,8.939,13.245,8.939C150.884,191.146,156.348,187.379,156.348,182.207 M133.251,150.002
	c0,7.039,2.525,13.125,9.646,13.125c7.158,0,9.724-6.086,9.724-13.125c0-7.035-2.566-13.119-9.724-13.119
	C135.776,136.883,133.251,142.967,133.251,150.002"/>
<rect x="173.137" y="116.561" fill="#FFFFFF" width="5.793" height="56.207"/>
<path fill="#FFFFFF" d="M197.244,122.105c1.862,0,3.393,1.531,3.393,3.395c0,1.862-1.531,3.395-3.393,3.395
	c-1.863,0-3.396-1.532-3.396-3.395C193.848,123.637,195.381,122.105,197.244,122.105 M194.347,136.428h5.795v36.34h-5.795V136.428z"
	/>
<path fill="#FFFFFF" d="M239.237,149.59c0-5.338-0.123-12.707-7.243-12.707c-8.691,0-11.793,10.969-11.793,19.537v16.347h-5.795
	v-36.339h5.795v13.327c0.701-4.883,3.061-14.032,12.747-14.032c7.491,0,12.084,5.508,12.084,13.867v23.177h-5.795V149.59z"/>
<path fill="#FFFFFF" d="M271.342,172.768c-1.738-0.125-13.535-1.24-13.535-4.843c0-2.732,9.686-3.769,12.168-3.972
	c-7.034-1.367-12-6.828-12-13.951c0-8.232,6.703-14.278,15.561-14.278c4.926,0,9.353,1.946,12.251,5.216
	c1.283-1.036,2.236-3.023,2.236-5.878h4.634c0,3.021-2.979,5.878-6.082,6.913c1.614,2.234,2.566,4.967,2.566,8.027
	c0,8.485-6.253,12.998-14.527,14.199c-3.396,0.497-11.427,1.612-11.427,3.724c0,2.071,5.918,3.312,12.998,4.347
	c10.598,1.534,16.433,5.01,16.433,9.936c0,5.836-8.898,10.098-18.874,10.098c-9.975,0-18.876-4.262-18.876-10.098
	c0-5.176,6.995-9.439,15.895-9.439H271.342z M286.987,182.207c0-5.219-5.544-8.901-13.244-8.901c-7.699,0-13.247,3.683-13.247,8.901
	c0,5.172,5.466,8.939,13.247,8.939C281.523,191.146,286.987,187.379,286.987,182.207 M263.891,150.002
	c0,7.039,2.524,13.125,9.645,13.125c7.159,0,9.729-6.086,9.729-13.125c0-7.035-2.569-13.119-9.729-13.119
	C266.415,136.883,263.891,142.967,263.891,150.002"/>
<path fill="#FFFFFF" d="M350.022,169.002v-24.918h6.249v23.595c-5.256,3.765-12.375,6.165-21.606,6.165
	c-16.515,0-29.758-12.621-29.758-29.18c0-16.517,13.243-29.18,29.758-29.18c6.996,0,13.618,1.781,18.501,4.635v2.94
	c-4.635-4.144-11.548-6.417-18.501-6.417c-12.788,0-22.802,11.549-22.802,28.021c0,16.516,10.014,28.021,22.802,28.021
	C341.618,172.686,346.172,171.278,350.022,169.002"/>
<path fill="#FFFFFF" d="M391.552,166.146c-1.366,3.188-4.551,7.2-11.752,7.2c-6.542,0-11.591-3.351-11.591-9.809
	c0-6.994,5.921-9.353,14.775-12.706c7.329-2.774,7.369-4.512,7.369-7.45c0-3.228-0.828-6.499-6.376-6.499
	c-7.447,0-11.382,5.546-11.548,5.837v-3.063c0,0,3.936-3.934,11.964-3.934c11.63,0,12.002,8.278,12.002,11.59v15.025
	c0,8.857,2.651,9.273,3.683,9.273c1.284,0,2.195-0.664,2.195-0.664v0.869c0,0-0.786,0.95-2.979,0.95
	C395.652,172.767,392.921,170.245,391.552,166.146 M390.558,146.445c-0.951,2.441-2.522,3.27-7.487,5.709
	c-6.004,2.982-8.86,5.59-8.86,11.426c0,4.844,2.442,8.609,7.077,8.609c4.76,0,8.362-3.145,9.895-7.326
	c-0.373-1.571-0.577-3.312-0.577-5.215v-10.225C390.604,148.473,390.604,147.273,390.558,146.445"/>
<path fill="#FFFFFF" d="M406.578,136.428h6.209v-9.106l5.795-4.138v13.244h10.512v1.16h-10.512v22.724
	c0,4.718,0,11.629,5.712,11.629c1.735,0,2.979-0.455,2.979-0.455v1.157c0,0-1.409,0.458-2.979,0.458
	c-9.48,0-11.507-6.829-11.507-15.646v-19.866h-6.209V136.428z"/>
<path fill="#FFFFFF" d="M440.931,153.357v1.24c0,8.32,2.565,17.592,12.208,17.592c8.032,0,11.424-6.58,11.593-6.912v3.104
	c0,0-3.687,4.966-12.172,4.966c-11.214,0-17.672-8.815-17.672-18.749c0-10.513,6.83-18.875,16.72-18.875
	c9.521,0,15.359,7.74,15.854,17.635H440.931z M440.971,152.195h20.365c-0.496-8.232-2.442-15.312-9.729-15.312
	C444.82,136.883,441.47,143.341,440.971,152.195"/>
<path fill="#FFFFFF" d="M369.194,46.415c0.621-0.959,1.879-3.464,0.518-6.584c-0.049-0.117-0.113-0.224-0.168-0.337
	c-0.078-0.161-0.15-0.32-0.244-0.482c-0.015-0.011-0.021-0.016-0.033-0.026c-1.006-1.603-2.781-2.674-4.809-2.674
	c-2.67,0-4.914,1.853-5.51,4.35c-1.021-18.5-16.625-33.244-35.665-33.244c-17.806,0-32.61,12.903-35.282,29.715
	c-0.014-0.017-0.029-0.034-0.043-0.052v-0.056c-0.096-0.114-0.207-0.217-0.328-0.308c-0.461-0.44-1.086-0.714-1.773-0.714
	c-1.416,0-2.568,1.152-2.568,2.568v1.501h-1.709v-1.911c0-1.368-1.08-2.362-2.568-2.362c-1.486,0-2.566,0.994-2.566,2.362v1.911
	H134.222c-4.654,0-4.41,0.869-4.41,1.945c0,0.181-0.012,0.388,0,0.557V42.6v0.026c-0.012,0.182,0,0.363,0,0.558
	c0,0.867-0.158,1.617,2.301,1.858c0,0,2.341,0.097,2.414,0.099c-0.211,0.331-0.33,0.71-0.33,1.125v9.085
	c0,1.433,1.382,2.597,3.08,2.597c1.699,0,3.08-1.164,3.08-2.597v-9.085c0-0.415-0.117-0.794-0.328-1.125h0.455h1.115h0.885v11.308
	h1.191V45.141h0.662h0.789h0.131h0.805h0.275c-0.226,0.349-0.347,0.754-0.347,1.198v9.375c0,1.475,1.378,2.676,3.078,2.676
	c1.701,0,3.086-1.201,3.086-2.676v-9.375c0-0.444-0.125-0.849-0.354-1.198h1.055h1.531v11.308h1.166V45.141h0.041h0.012h0.777h0.016
	h0.115h0.012h0.804h1.272h0.805h0.128h0.79h0.482h115.639v2.049c0,1.417,1.15,2.568,2.566,2.568c0.713,0,1.356-0.291,1.822-0.761
	c0.223-0.207,0.398-0.461,0.516-0.748c0.148-0.325,0.23-0.68,0.23-1.059v-2.049h1.709v1.843c0,1.415,1.152,2.567,2.568,2.567
	c0.559,0,1.07-0.187,1.492-0.491c0.223-0.124,0.416-0.291,0.58-0.486c0.023-0.028,0.059-0.045,0.082-0.074v-0.038
	c0.016-0.023,0.035-0.046,0.053-0.071c2.818,16.635,17.535,29.358,35.22,29.358c19.019,0,34.608-14.704,35.659-33.168
	c0.588,2.51,2.83,4.397,5.516,4.397c1.7,0,3.217-0.774,4.262-1.969c0.1-0.095,0.172-0.169,0.172-0.169s0.101-0.122,0.254-0.347
	C369.165,46.467,369.179,46.441,369.194,46.415 M139.409,55.437c0,0.88-0.56,1.632-1.38,1.996c-0.313,0.127-0.854,0.26-1.452,0.015
	c-0.031-0.014-0.064-0.027-0.093-0.042c-0.03-0.014-0.059-0.028-0.084-0.044c-0.737-0.386-1.231-1.099-1.231-1.925v-9.413
	c0-0.324,0.065-0.61,0.194-0.883h0.359h1.055h0.584h0.195h0.014h0.554h1.077c0.144,0.273,0.208,0.559,0.208,0.883V55.437z
	 M149.068,58.1c-0.022,0-0.043-0.001-0.065-0.002c0.17-0.001,0.36-0.013,0.565-0.039C149.408,58.086,149.24,58.1,149.068,58.1
	 M151.171,55.8c0,1.007-0.732,1.846-1.736,2.126c-0.348,0.067-0.795,0.057-1.266-0.203c-0.058-0.034-0.113-0.062-0.16-0.087
	c-0.646-0.4-1.066-1.069-1.066-1.836v-9.426c0-0.467,0.17-0.882,0.427-1.233h0.778h0.119h0.012h0.777h0.014h1.673
	c0.284,0.351,0.428,0.766,0.428,1.233V55.8z M280.813,40.072v1.153v2.763v1.153v2.316c0,0.632-0.28,1.193-0.717,1.578
	c-0.148,0.113-0.936,0.665-1.842,0.226c-0.602-0.363-1.006-1.031-1.006-1.804v-2.316v-1.153v-2.763v-1.153v-2.01
	c0-0.806,0.449-1.503,1.111-1.856c0.748-0.306,1.4,0.047,1.652,0.218c0.486,0.385,0.801,0.974,0.801,1.638V40.072z M292.071,43.884
	c2.756,0.685,6.671,1.759,10.396,3.15c7.008,2.605,10.752,5.383,10.859,8.014c0,3.892-3.445,4.545-5.48,2.907
	c-1.107-1.056-1.707-2.846-0.334-4.786l-3.443-1.905c-0.406,1.577-0.146,3.35,0.582,4.835c0.529,1.209,1.297,2.003,2.127,2.508
	c0.008,0.002,0.012,0.006,0.016,0.009h0.002c1.527,0.919,3.264,0.853,4.117,0.538c0.12-0.045,0.463-0.183,0.551-0.212
	c1.092-0.375,3.053-1.955,2.938-4.59c-0.342-7.846-14.584-11.093-22.352-11.416c-0.002-0.115-0.008-0.228-0.008-0.343
	c0-0.013,0.002-0.026,0.002-0.04c7.764-0.321,22.016-3.567,22.357-11.415c0.115-2.637-1.846-4.216-2.938-4.59
	c-0.088-0.03-0.431-0.169-0.551-0.213c-0.854-0.315-2.59-0.38-4.117,0.538h-0.002c-0.004,0.003-0.008,0.007-0.016,0.009
	c-0.83,0.505-1.598,1.301-2.127,2.508c-0.729,1.485-0.988,3.259-0.586,4.836l3.447-1.907c-1.373-1.94-0.773-3.728,0.334-4.784
	c2.035-1.637,5.48-0.986,5.48,2.907c-0.107,2.63-3.852,5.409-10.859,8.014c-3.727,1.391-7.645,2.467-10.404,3.152
	c0.482-18.312,14.299-33.05,31.22-33.05c16.923,0,30.735,14.729,31.224,33.033c-2.752-0.686-6.637-1.756-10.334-3.136
	c-7.006-2.606-10.752-5.383-10.859-8.014c0.002-3.891,3.445-4.544,5.484-2.906c1.105,1.056,1.703,2.844,0.328,4.786l3.447,1.905
	c0.408-1.577,0.145-3.352-0.584-4.837c-0.529-1.207-1.299-2.002-2.127-2.507c-0.004-0.002-0.008-0.006-0.014-0.009h-0.002
	c-1.531-0.918-3.266-0.853-4.119-0.538c-0.123,0.044-0.465,0.183-0.553,0.212c-1.092,0.375-3.051,1.955-2.938,4.591
	c0.342,7.825,14.51,11.074,22.293,11.413c0,0.014,0.002,0.028,0.002,0.042c0,0.115-0.008,0.23-0.012,0.346
	c-7.779,0.339-21.941,3.589-22.283,11.412c-0.113,2.637,1.846,4.216,2.938,4.59c0.09,0.03,0.43,0.168,0.553,0.213
	c0.854,0.315,2.588,0.381,4.119-0.538h0.002c0.006-0.003,0.01-0.008,0.014-0.01c0.828-0.503,1.598-1.299,2.127-2.507
	c0.729-1.485,0.992-3.258,0.584-4.835l-3.447,1.906c1.375,1.939,0.777,3.73-0.328,4.784c-2.039,1.638-5.482,0.986-5.484-2.906
	c0.107-2.63,3.854-5.41,10.859-8.014c3.694-1.378,7.572-2.447,10.328-3.134c-0.635,18.152-14.387,32.709-31.218,32.709
	C306.454,76.609,292.698,62.044,292.071,43.884 M285.856,36.262c0.016,0,0.031,0.002,0.047,0.002
	c-0.23,0.007-0.447,0.036-0.641,0.078C285.452,36.291,285.649,36.262,285.856,36.262 M285.374,49.039
	c-0.68-0.339-1.15-1.034-1.15-1.849v-2.049v-1.153v-2.763v-1.153V38.4c0-0.768,0.418-1.438,1.037-1.799
	c0.635-0.299,1.207-0.114,1.541,0.061c0.562,0.374,0.94,1.006,0.94,1.73v0.368c-0.142,1.264-0.224,2.546-0.224,3.84
	c0,1.279,0.082,2.535,0.224,3.777v0.857c0,0.522-0.192,0.991-0.505,1.354c-0.021,0.022-0.041,0.045-0.064,0.066
	c-0.041,0.045-0.09,0.088-0.137,0.13C286.831,48.931,286.163,49.344,285.374,49.039 M359.513,44.745
	c-0.219-0.465-0.928-2.27,0.029-4.25c0.979-1.705,2.801-2.864,4.916-2.864c1.43,0,2.729,0.532,3.723,1.4
	c0.059,0.052,0.121,0.114,0.191,0.182c0.102,0.098,0.193,0.205,0.286,0.311c0.888,1.016,2.005,2.991,0.548,5.523
	c-1.008,1.56-2.744,2.604-4.748,2.604C362.323,47.651,360.483,46.478,359.513,44.745"/>
<polygon fill="#FFFFFF" points="325.892,23.342 319.206,62.684 321.284,61.965 327.979,22.607 "/>
</svg>
