<?xml version="1.0" encoding="utf-8"?>
<!-- Generator: Adobe Illustrator 15.0.2, SVG Export Plug-In . SVG Version: 6.00 Build 0)  -->
<!DOCTYPE svg PUBLIC "-//W3C//DTD SVG 1.1//EN" "http://www.w3.org/Graphics/SVG/1.1/DTD/svg11.dtd">
<svg version="1.1" id="Layer_1" xmlns="http://www.w3.org/2000/svg" xmlns:xlink="http://www.w3.org/1999/xlink" x="0px" y="0px"
	 width="221.951px" height="70px" viewBox="0 0 221.951 70" enable-background="new 0 0 221.951 70" xml:space="preserve">
<path fill="#5C4856" d="M58.949,46.391c1.746-1.205,3.491-3.065,3.491-8.536v-14.92h1.954v13.965c0,8.482-5.444,9.854-5.444,9.854
	L58.949,46.391L58.949,46.391z"/>
<path fill="#5C4856" d="M70.37,24.666c0.582,0,1.061,0.478,1.061,1.06c0,0.583-0.479,1.062-1.061,1.062
	c-0.583,0-1.06-0.479-1.06-1.062C69.31,25.144,69.788,24.666,70.37,24.666 M69.464,29.14h1.81v11.354h-1.81V29.14z"/>
<path fill="#5C4856" d="M83.284,33.252c0-1.667-0.039-3.97-2.263-3.97c-2.714,0-3.683,3.428-3.683,6.103v5.107h-1.811V29.141h1.811
	v4.164c0.219-1.526,0.956-4.383,3.98-4.383c2.34,0,3.776,1.72,3.776,4.332v7.241h-1.811V33.252z"/>
<path fill="#5C4856" d="M92.699,40.493c-0.543-0.038-4.229-0.387-4.229-1.515c0-0.852,3.026-1.177,3.803-1.239
	c-2.2-0.427-3.75-2.133-3.75-4.359c0-2.573,2.095-4.46,4.862-4.46c1.539,0,2.923,0.608,3.827,1.629
	c0.4-0.324,0.699-0.944,0.699-1.837h1.449c0,0.945-0.931,1.837-1.901,2.161c0.505,0.698,0.802,1.552,0.802,2.507
	c0,2.652-1.953,4.059-4.54,4.437c-1.061,0.154-3.569,0.503-3.569,1.161c0,0.647,1.848,1.036,4.061,1.359
	c3.31,0.48,5.134,1.564,5.134,3.103c0,1.825-2.781,3.157-5.896,3.157c-3.117,0-5.897-1.332-5.897-3.157
	c0-1.616,2.185-2.948,4.965-2.948L92.699,40.493L92.699,40.493z M97.587,43.442c0-1.632-1.733-2.78-4.138-2.78
	s-4.138,1.148-4.138,2.78c0,1.618,1.707,2.792,4.138,2.792C95.88,46.234,97.587,45.06,97.587,43.442 M90.372,33.38
	c0,2.2,0.788,4.101,3.014,4.101c2.236,0,3.038-1.901,3.038-4.101c0-2.198-0.802-4.099-3.038-4.099
	C91.159,29.283,90.372,31.183,90.372,33.38"/>
<rect x="102.832" y="22.934" fill="#5C4856" width="1.811" height="17.559"/>
<path fill="#5C4856" d="M110.365,24.666c0.581,0,1.059,0.478,1.059,1.06c0,0.583-0.478,1.062-1.059,1.062
	c-0.583,0-1.062-0.479-1.062-1.062C109.303,25.144,109.782,24.666,110.365,24.666 M109.459,29.14h1.809v11.354h-1.809V29.14z"/>
<path fill="#5C4856" d="M123.482,33.252c0-1.667-0.038-3.97-2.263-3.97c-2.715,0-3.686,3.428-3.686,6.103v5.107h-1.811V29.141h1.811
	v4.164c0.221-1.526,0.957-4.383,3.983-4.383c2.341,0,3.774,1.72,3.774,4.332v7.241h-1.811L123.482,33.252L123.482,33.252z"/>
<path fill="#5C4856" d="M133.513,40.493c-0.543-0.038-4.229-0.387-4.229-1.515c0-0.852,3.025-1.177,3.802-1.239
	c-2.198-0.427-3.749-2.133-3.749-4.359c0-2.573,2.094-4.46,4.861-4.46c1.539,0,2.921,0.608,3.828,1.629
	c0.399-0.324,0.698-0.944,0.698-1.837h1.448c0,0.945-0.931,1.837-1.899,2.161c0.504,0.698,0.802,1.552,0.802,2.507
	c0,2.652-1.955,4.059-4.538,4.437c-1.062,0.154-3.569,0.503-3.569,1.161c0,0.647,1.849,1.036,4.06,1.359
	c3.31,0.48,5.134,1.564,5.134,3.103c0,1.825-2.78,3.157-5.896,3.157s-5.896-1.332-5.896-3.157c0-1.616,2.186-2.948,4.965-2.948
	L133.513,40.493L133.513,40.493z M138.399,43.442c0-1.632-1.731-2.78-4.138-2.78c-2.404,0-4.137,1.148-4.137,2.78
	c0,1.618,1.705,2.792,4.137,2.792C136.692,46.234,138.399,45.06,138.399,43.442 M131.184,33.38c0,2.2,0.788,4.101,3.014,4.101
	c2.235,0,3.038-1.901,3.038-4.101c0-2.198-0.801-4.099-3.038-4.099C131.972,29.283,131.184,31.183,131.184,33.38"/>
<path fill="#5C4856" d="M158.093,39.317v-7.785h1.953v7.372c-1.643,1.176-3.867,1.926-6.751,1.926c-5.159,0-9.297-3.942-9.297-9.116
	c0-5.16,4.138-9.116,9.297-9.116c2.187,0,4.255,0.557,5.779,1.448v0.919c-1.446-1.294-3.605-2.005-5.779-2.005
	c-3.995,0-7.123,3.608-7.123,8.754c0,5.159,3.128,8.754,7.123,8.754C155.467,40.468,156.89,40.028,158.093,39.317"/>
<path fill="#5C4856" d="M171.067,38.425c-0.428,0.997-1.422,2.25-3.673,2.25c-2.043,0-3.62-1.047-3.62-3.064
	c0-2.185,1.849-2.921,4.616-3.97c2.289-0.867,2.303-1.41,2.303-2.328c0-1.007-0.259-2.03-1.994-2.03
	c-2.325,0-3.555,1.733-3.605,1.824V30.15c0,0,1.229-1.229,3.737-1.229c3.633,0,3.749,2.586,3.749,3.621v4.694
	c0,2.766,0.827,2.897,1.15,2.897c0.401,0,0.687-0.209,0.687-0.209v0.271c0,0-0.247,0.297-0.932,0.297
	C172.348,40.493,171.494,39.705,171.067,38.425 M170.757,32.27c-0.297,0.764-0.788,1.022-2.339,1.783
	c-1.876,0.932-2.768,1.748-2.768,3.569c0,1.515,0.763,2.69,2.21,2.69c1.486,0,2.612-0.98,3.091-2.289
	c-0.118-0.491-0.181-1.035-0.181-1.629V33.2C170.771,32.903,170.771,32.528,170.757,32.27"/>
<path fill="#5C4856" d="M175.761,29.14h1.939v-2.843l1.811-1.293v4.136h3.284v0.363h-3.284v7.099c0,1.474,0,3.634,1.784,3.634
	c0.544,0,0.932-0.143,0.932-0.143v0.361c0,0-0.44,0.143-0.932,0.143c-2.96,0-3.595-2.131-3.595-4.888v-6.207h-1.939V29.14z"/>
<path fill="#5C4856" d="M186.493,34.43v0.388c0,2.599,0.802,5.495,3.813,5.495c2.509,0,3.568-2.055,3.622-2.159v0.97
	c0,0-1.151,1.553-3.803,1.553c-3.505,0-5.522-2.754-5.522-5.857c0-3.285,2.134-5.897,5.225-5.897c2.975,0,4.799,2.419,4.953,5.509
	H186.493L186.493,34.43z M186.506,34.066h6.362c-0.155-2.574-0.763-4.785-3.038-4.785C187.708,29.283,186.661,31.3,186.506,34.066"
	/>
<polygon fill="#DFB66E" points="35.59,28.441 36.05,28.235 37.918,17.241 37.458,17.453 "/>
<path fill="#DFB66E" d="M46.674,22.825c0-5.153-4.068-9.385-9.202-9.757c0.597-0.226,1.03-0.801,1.03-1.482
	c0-0.579-0.316-1.09-0.786-1.368v0c0,0-0.769-0.516-1.749-0.108c-0.049,0.019-0.097,0.042-0.145,0.065
	c-0.003,0.002-0.006,0.003-0.01,0.005c0,0.001,0,0.001,0,0.001c-0.505,0.268-0.85,0.799-0.85,1.405c0,0.681,0.429,1.257,1.03,1.482
	c-5.138,0.371-9.206,4.603-9.206,9.756c0,4.872,3.634,8.926,8.376,9.666c-0.032,0.026-0.06,0.059-0.085,0.092
	c-0.125,0.129-0.201,0.305-0.201,0.498c0,0.397,0.324,0.722,0.721,0.722h0.423v0.48h-0.538c-0.384,0-0.663,0.303-0.663,0.721
	c0,0.417,0.279,0.722,0.663,0.722h0.538v22.72c0,1.308,0.244,1.238,0.546,1.238c0.051,0,0.109,0.006,0.156,0h0.006h0.008
	c0.051,0.006,0.101,0,0.157,0c0.243,0,0.454,0.047,0.521-0.646c0,0,0.027-0.658,0.028-0.678c0.092,0.06,0.2,0.092,0.316,0.092h2.55
	c0.402,0,0.729-0.389,0.729-0.865s-0.326-0.865-0.729-0.865h-2.55c-0.116,0-0.224,0.034-0.316,0.094v-0.128v-0.314v-0.248h3.176
	v-0.336h-3.177v-0.187v-0.221v-0.037v-0.226v-0.078c0.098,0.064,0.212,0.1,0.336,0.1h2.634c0.414,0,0.75-0.389,0.75-0.866
	s-0.336-0.866-0.75-0.866h-2.634c-0.124,0-0.238,0.035-0.336,0.099v-0.295v-0.433h3.176v-0.325h-3.176v-0.011v-0.006v-0.216v-0.005
	v-0.032v-0.003v-0.225V51.6v-0.226v-0.037v-0.222V50.98V35.726h0.576c0.396,0,0.722-0.324,0.722-0.722
	c0-0.201-0.083-0.381-0.214-0.512c-0.058-0.062-0.129-0.112-0.21-0.146c-0.09-0.042-0.191-0.063-0.297-0.063h-0.576v-0.48h0.518
	c0.397,0,0.721-0.324,0.721-0.722c0-0.17-0.061-0.329-0.159-0.453c-0.036-0.06-0.082-0.111-0.134-0.152
	C43.083,31.7,46.674,27.666,46.674,22.825 M35.771,12.674c-0.272-0.283-0.441-0.665-0.441-1.088c0-0.406,0.153-0.774,0.404-1.054
	c0.001-0.002,0.004-0.004,0.006-0.007c0.013-0.014,0.026-0.027,0.04-0.04c0.203-0.197,0.972-0.831,1.863-0.042
	c0.299,0.289,0.489,0.693,0.489,1.144c0,0.551-0.281,1.026-0.702,1.309c-0.16,0.086-0.386,0.154-0.691,0.14h-0.003h-0.003
	C36.208,13.011,35.911,12.807,35.771,12.674 M34.949,33.081c0-0.004,0-0.009,0-0.014c0.003,0.064,0.011,0.126,0.023,0.181
	C34.957,33.195,34.949,33.139,34.949,33.081 M40.895,57.376c0.036,0.089,0.074,0.24,0.005,0.408
	c-0.005,0.009-0.007,0.017-0.012,0.025c-0.004,0.009-0.007,0.017-0.012,0.025c-0.108,0.205-0.31,0.344-0.541,0.344H37.69
	c-0.091,0-0.17-0.018-0.249-0.052v-0.104v-0.296v-0.163v-0.056v-0.003v-0.155v-0.303c0.078-0.039,0.157-0.058,0.249-0.058h2.644
	C40.582,56.989,40.794,57.146,40.895,57.376 M41.083,54.275c0,0.006,0,0.014,0,0.019c-0.001-0.049-0.005-0.101-0.012-0.159
	C41.077,54.182,41.083,54.229,41.083,54.275 M37.79,53.685h2.647c0.283,0,0.518,0.207,0.597,0.488
	c0.019,0.098,0.017,0.223-0.057,0.356c-0.01,0.017-0.017,0.031-0.023,0.045c-0.113,0.183-0.301,0.299-0.517,0.299H37.79
	c-0.131,0-0.248-0.048-0.346-0.119v-0.221v-0.031v-0.005V54.28v-0.005v-0.471C37.542,53.727,37.658,53.685,37.79,53.685
	 M38.093,34.498c0.178,0,0.334,0.079,0.442,0.202c0.033,0.041,0.188,0.261,0.065,0.516c-0.102,0.169-0.29,0.283-0.507,0.283h-0.65
	h-0.324h-0.774H36.02h-0.565c-0.225,0-0.422-0.124-0.521-0.311c-0.086-0.211,0.013-0.394,0.06-0.464
	c0.11-0.137,0.275-0.225,0.46-0.225h0.565h0.324h0.774h0.325L38.093,34.498L38.093,34.498z M38.46,32.74
	c0.037,0.05,0.166,0.246,0.078,0.476c-0.095,0.192-0.291,0.324-0.52,0.324h-0.576h-0.324h-0.774H36.02h-0.47
	c-0.215,0-0.403-0.118-0.504-0.291c-0.133-0.28,0.072-0.518,0.072-0.518l-0.001-0.001c0.099-0.108,0.237-0.18,0.393-0.19
	c0.399,0.051,0.808,0.076,1.218,0.076c0.42,0,0.832-0.025,1.236-0.079h0.016h0.04C38.196,32.535,38.354,32.615,38.46,32.74
	 M37.417,32.334c-0.131,0.011-0.972,0.02-0.972,0.021c-2.328-0.079-4.425-1.154-5.952-2.842c-1.53-1.688-2.484-3.992-2.52-6.534
	v-0.002c0.75,0.185,1.867,0.486,2.923,0.88c1.901,0.707,2.917,1.46,2.946,2.174c0,1.056-0.935,1.232-1.487,0.788
	c-0.3-0.287-0.462-0.771-0.089-1.298l-0.936-0.517c-0.111,0.428-0.04,0.909,0.157,1.312c0.144,0.328,0.352,0.544,0.577,0.681
	c0.002,0.001,0.002,0.002,0.004,0.003l0,0c0.416,0.25,0.886,0.231,1.118,0.147c0.033-0.013,0.125-0.05,0.15-0.059
	c0.296-0.101,0.828-0.53,0.798-1.246c-0.095-2.16-4.077-3.036-6.16-3.1l0.001-0.096c2.084-0.065,6.063-0.94,6.159-3.102
	c0.03-0.715-0.5-1.143-0.798-1.245c-0.024-0.009-0.117-0.046-0.15-0.058c-0.231-0.086-0.702-0.102-1.118,0.146l0,0
	c-0.002,0-0.003,0.001-0.004,0.002c-0.225,0.137-0.433,0.353-0.577,0.681c-0.197,0.404-0.269,0.884-0.158,1.312l0.937-0.518
	c-0.373-0.526-0.211-1.012,0.089-1.298c0.552-0.444,1.487-0.267,1.487,0.789c-0.028,0.714-1.044,1.467-2.946,2.175
	c-1.053,0.393-2.165,0.693-2.917,0.878c0.201-5.063,4.048-9.116,8.751-9.116c4.723,0,8.581,4.093,8.746,9.192
	c-0.751-0.183-1.886-0.489-2.958-0.889c-1.901-0.707-2.917-1.461-2.948-2.174c0-1.056,0.937-1.234,1.488-0.789
	c0.299,0.288,0.462,0.771,0.09,1.299l0.935,0.516c0.11-0.427,0.04-0.91-0.157-1.312c-0.145-0.327-0.353-0.543-0.578-0.681
	c-0.002,0-0.003-0.001-0.004-0.002h0c-0.415-0.25-0.886-0.232-1.116-0.146c-0.033,0.011-0.126,0.05-0.151,0.057
	c-0.296,0.102-0.828,0.53-0.797,1.246c0.096,2.176,4.135,3.048,6.206,3.103l0.001,0.013v0.076c-2.06,0.044-6.147,0.914-6.243,3.104
	c-0.031,0.714,0.5,1.144,0.797,1.245c0.023,0.008,0.118,0.046,0.151,0.058c0.23,0.085,0.701,0.103,1.117-0.146l0,0
	c0.002,0,0.002-0.002,0.004-0.003c0.226-0.137,0.434-0.353,0.577-0.679c0.198-0.404,0.269-0.885,0.158-1.313l-0.935,0.517
	c0.373,0.526,0.21,1.012-0.089,1.298c-0.553,0.445-1.488,0.268-1.488-0.789c0.03-0.713,1.045-1.467,2.947-2.174
	c1.092-0.409,2.25-0.717,3.001-0.899C45.398,27.939,41.869,31.956,37.417,32.334"/>
</svg>
