<?xml version="1.0" encoding="utf-8"?>
<!-- Generator: Adobe Illustrator 15.0.2, SVG Export Plug-In . SVG Version: 6.00 Build 0)  -->
<!DOCTYPE svg PUBLIC "-//W3C//DTD SVG 1.1//EN" "http://www.w3.org/Graphics/SVG/1.1/DTD/svg11.dtd">
<svg version="1.1" id="Layer_1" xmlns="http://www.w3.org/2000/svg" xmlns:xlink="http://www.w3.org/1999/xlink" x="0px" y="0px"
	 width="221.951px" height="70px" viewBox="0 0 221.951 70" enable-background="new 0 0 221.951 70" xml:space="preserve">
<path fill="#5C4856" d="M49.062,48.449c2.133-1.47,4.263-3.742,4.263-10.423V19.805h2.386v17.055
	c0,10.358-6.648,12.032-6.648,12.032V48.449z"/>
<path fill="#5C4856" d="M63.01,21.92c0.71,0,1.295,0.584,1.295,1.295c0,0.711-0.585,1.296-1.295,1.296
	c-0.711,0-1.295-0.585-1.295-1.296C61.715,22.504,62.299,21.92,63.01,21.92 M61.904,27.384h2.21v13.864h-2.21V27.384z"/>
<path fill="#5C4856" d="M78.78,32.405c0-2.036-0.047-4.848-2.764-4.848c-3.314,0-4.498,4.185-4.498,7.453v6.237h-2.212V27.385h2.212
	v5.084c0.267-1.863,1.167-5.353,4.861-5.353c2.858,0,4.611,2.1,4.611,5.29v8.843H78.78V32.405z"/>
<path fill="#5C4856" d="M90.277,41.248c-0.663-0.047-5.163-0.473-5.163-1.849c0-1.042,3.694-1.437,4.644-1.514
	c-2.686-0.522-4.579-2.605-4.579-5.323c0-3.142,2.558-5.447,5.937-5.447c1.88,0,3.569,0.743,4.674,1.99
	c0.489-0.396,0.853-1.153,0.853-2.243h1.769c0,1.153-1.137,2.243-2.321,2.638c0.616,0.852,0.98,1.895,0.98,3.062
	c0,3.238-2.385,4.958-5.544,5.418c-1.295,0.189-4.358,0.614-4.358,1.419c0,0.791,2.257,1.265,4.959,1.659
	c4.042,0.586,6.27,1.911,6.27,3.79c0,2.227-3.396,3.854-7.201,3.854c-3.807,0-7.201-1.627-7.201-3.854
	c0-1.975,2.668-3.601,6.063-3.601H90.277z M96.247,44.849c0-1.991-2.116-3.395-5.053-3.395c-2.938,0-5.053,1.403-5.053,3.395
	c0,1.976,2.084,3.41,5.053,3.41C94.162,48.259,96.247,46.824,96.247,44.849 M87.436,32.562c0,2.686,0.962,5.008,3.68,5.008
	c2.731,0,3.71-2.322,3.71-5.008c0-2.684-0.979-5.005-3.71-5.005C88.397,27.558,87.436,29.879,87.436,32.562"/>
<rect x="102.651" y="19.805" fill="#5C4856" width="2.211" height="21.443"/>
<path fill="#5C4856" d="M111.85,21.92c0.71,0,1.294,0.584,1.294,1.295c0,0.711-0.584,1.296-1.294,1.296
	c-0.711,0-1.296-0.585-1.296-1.296C110.554,22.504,111.139,21.92,111.85,21.92 M110.744,27.384h2.21v13.864h-2.21V27.384z"/>
<path fill="#5C4856" d="M127.87,32.405c0-2.036-0.047-4.848-2.764-4.848c-3.316,0-4.499,4.185-4.499,7.453v6.237h-2.211V27.385
	h2.211v5.084c0.268-1.863,1.168-5.353,4.863-5.353c2.858,0,4.609,2.1,4.609,5.29v8.843h-2.21V32.405z"/>
<path fill="#5C4856" d="M140.118,41.248c-0.663-0.047-5.164-0.473-5.164-1.849c0-1.042,3.695-1.437,4.643-1.514
	c-2.684-0.522-4.579-2.605-4.579-5.323c0-3.142,2.558-5.447,5.937-5.447c1.88,0,3.568,0.743,4.675,1.99
	c0.488-0.396,0.853-1.153,0.853-2.243h1.769c0,1.153-1.137,2.243-2.32,2.638c0.615,0.852,0.979,1.895,0.979,3.062
	c0,3.238-2.386,4.958-5.542,5.418c-1.296,0.189-4.359,0.614-4.359,1.419c0,0.791,2.259,1.265,4.958,1.659
	c4.042,0.586,6.27,1.911,6.27,3.79c0,2.227-3.395,3.854-7.201,3.854c-3.805,0-7.201-1.627-7.201-3.854
	c0-1.975,2.669-3.601,6.064-3.601H140.118z M146.087,44.849c0-1.991-2.115-3.395-5.054-3.395c-2.937,0-5.052,1.403-5.052,3.395
	c0,1.976,2.083,3.41,5.052,3.41S146.087,46.824,146.087,44.849 M137.275,32.562c0,2.686,0.962,5.008,3.679,5.008
	c2.731,0,3.711-2.322,3.711-5.008c0-2.684-0.979-5.005-3.711-5.005C138.237,27.558,137.275,29.879,137.275,32.562"/>
<path fill="#5C4856" d="M170.135,39.812v-9.507h2.385v9.002c-2.006,1.437-4.722,2.353-8.243,2.353
	c-6.301,0-11.354-4.815-11.354-11.133c0-6.301,5.053-11.132,11.354-11.132c2.669,0,5.195,0.68,7.057,1.768v1.122
	c-1.767-1.581-4.404-2.448-7.057-2.448c-4.879,0-8.699,4.406-8.699,10.69c0,6.301,3.82,10.69,8.699,10.69
	C166.929,41.217,168.666,40.68,170.135,39.812"/>
<path fill="#5C4856" d="M185.979,38.723c-0.521,1.216-1.736,2.747-4.485,2.747c-2.495,0-4.421-1.279-4.421-3.743
	c0-2.668,2.258-3.567,5.638-4.847c2.796-1.059,2.811-1.722,2.811-2.843c0-1.23-0.316-2.479-2.434-2.479
	c-2.841,0-4.341,2.117-4.403,2.227v-1.168c0,0,1.5-1.501,4.563-1.501c4.437,0,4.578,3.158,4.578,4.422v5.732
	c0,3.379,1.012,3.538,1.405,3.538c0.49,0,0.838-0.254,0.838-0.254v0.332c0,0-0.301,0.362-1.137,0.362
	C187.543,41.248,186.501,40.285,185.979,38.723 M185.6,31.206c-0.363,0.933-0.963,1.248-2.856,2.178
	c-2.291,1.138-3.38,2.134-3.38,4.358c0,1.849,0.932,3.285,2.7,3.285c1.814,0,3.189-1.198,3.774-2.794
	c-0.144-0.601-0.221-1.265-0.221-1.991v-3.9C185.617,31.979,185.617,31.521,185.6,31.206"/>
<path fill="#5C4856" d="M191.711,27.384h2.368v-3.473l2.212-1.579v5.052h4.01v0.442h-4.01v8.67c0,1.799,0,4.438,2.179,4.438
	c0.663,0,1.137-0.175,1.137-0.175V41.2c0,0-0.537,0.175-1.137,0.175c-3.616,0-4.391-2.604-4.391-5.97v-7.579h-2.368V27.384z"/>
<path fill="#5C4856" d="M204.817,33.843v0.474c0,3.174,0.979,6.711,4.657,6.711c3.064,0,4.358-2.51,4.423-2.637v1.184
	c0,0-1.406,1.896-4.643,1.896c-4.28,0-6.744-3.364-6.744-7.153c0-4.012,2.605-7.202,6.38-7.202c3.632,0,5.86,2.954,6.048,6.728
	H204.817z M204.833,33.4h7.769c-0.189-3.143-0.932-5.843-3.711-5.843C206.301,27.558,205.022,30.021,204.833,33.4"/>
<polygon fill="#DFB66E" points="20.537,26.53 21.099,26.279 23.38,12.853 22.818,13.112 "/>
<path fill="#DFB66E" d="M34.073,19.672c0-6.293-4.968-11.46-11.237-11.914c0.729-0.276,1.258-0.979,1.258-1.811
	c0-0.707-0.386-1.331-0.96-1.669V4.277c0,0-0.939-0.63-2.136-0.132c-0.06,0.023-0.118,0.051-0.176,0.08
	c-0.004,0.003-0.008,0.004-0.013,0.006c0,0.001,0,0.001,0,0.001c-0.617,0.327-1.038,0.976-1.038,1.716
	c0,0.832,0.524,1.535,1.258,1.811C14.755,8.212,9.787,13.379,9.787,19.672c0,5.95,4.438,10.9,10.229,11.803
	c-0.039,0.033-0.073,0.073-0.104,0.113c-0.152,0.158-0.245,0.373-0.245,0.608c0,0.485,0.395,0.881,0.88,0.881h0.516v0.587h-0.656
	c-0.469,0-0.81,0.37-0.81,0.881c0,0.509,0.341,0.881,0.81,0.881h0.656v27.745c0,1.597,0.298,1.513,0.667,1.513
	c0.062,0,0.133,0.005,0.191,0h0.007h0.01c0.062,0.005,0.124,0,0.192,0c0.297,0,0.554,0.055,0.637-0.789c0,0,0.033-0.804,0.034-0.828
	c0.112,0.073,0.244,0.113,0.386,0.113h3.115c0.491,0,0.891-0.475,0.891-1.057s-0.399-1.056-0.891-1.056h-3.115
	c-0.142,0-0.273,0.041-0.386,0.112v-0.156v-0.383v-0.303h3.878v-0.409H22.8v-0.228v-0.271v-0.044v-0.275v-0.096
	c0.119,0.078,0.259,0.121,0.41,0.121h3.216c0.506,0,0.917-0.475,0.917-1.058s-0.411-1.058-0.917-1.058H23.21
	c-0.151,0-0.291,0.043-0.41,0.121v-0.361v-0.527h3.878v-0.398H22.8v-0.013v-0.006V55.57v-0.005v-0.039v-0.004v-0.275v-0.437v-0.275
	V54.49V54.22v-0.166V35.426h0.703c0.484,0,0.881-0.396,0.881-0.881c0-0.245-0.101-0.466-0.262-0.626
	c-0.07-0.075-0.158-0.136-0.257-0.177c-0.11-0.051-0.233-0.078-0.362-0.078H22.8v-0.587h0.632c0.485,0,0.88-0.396,0.88-0.881
	c0-0.208-0.074-0.402-0.195-0.553c-0.044-0.072-0.1-0.135-0.164-0.186C29.688,30.51,34.073,25.583,34.073,19.672 M20.759,7.276
	c-0.332-0.345-0.539-0.811-0.539-1.329c0-0.495,0.187-0.945,0.494-1.287c0.002-0.003,0.005-0.005,0.007-0.008
	c0.016-0.017,0.032-0.033,0.049-0.049c0.247-0.24,1.187-1.015,2.275-0.051c0.365,0.353,0.597,0.847,0.597,1.396
	c0,0.673-0.343,1.253-0.857,1.599c-0.196,0.106-0.471,0.188-0.844,0.171h-0.004h-0.004C21.292,7.688,20.929,7.438,20.759,7.276
	 M19.754,32.196c0-0.005,0.001-0.011,0.001-0.017c0.003,0.079,0.013,0.154,0.027,0.221C19.764,32.335,19.754,32.267,19.754,32.196
	 M27.015,61.865c0.044,0.107,0.09,0.293,0.006,0.498c-0.006,0.011-0.009,0.021-0.015,0.032c-0.005,0.01-0.009,0.02-0.015,0.03
	c-0.132,0.252-0.378,0.421-0.661,0.421h-3.228c-0.111,0-0.208-0.022-0.303-0.065v-0.125v-0.362v-0.198v-0.068v-0.004v-0.19v-0.37
	c0.095-0.048,0.191-0.07,0.303-0.07h3.228C26.633,61.393,26.892,61.585,27.015,61.865 M27.244,58.079c0,0.007,0,0.016,0,0.022
	c-0.001-0.059-0.006-0.122-0.014-0.194C27.238,57.964,27.244,58.021,27.244,58.079 M23.223,57.358h3.232
	c0.346,0,0.633,0.251,0.729,0.595c0.023,0.119,0.021,0.272-0.069,0.435c-0.012,0.021-0.021,0.039-0.028,0.056
	c-0.138,0.222-0.368,0.365-0.631,0.365h-3.232c-0.16,0-0.303-0.058-0.423-0.146v-0.268v-0.039V58.35v-0.266v-0.005v-0.575
	C22.92,57.408,23.062,57.358,23.223,57.358 M23.594,33.927c0.217,0,0.408,0.096,0.54,0.246c0.04,0.05,0.229,0.319,0.079,0.63
	c-0.124,0.207-0.354,0.346-0.619,0.346H22.8h-0.396h-0.946h-0.396h-0.69c-0.275,0-0.516-0.153-0.636-0.38
	c-0.105-0.258,0.016-0.481,0.073-0.567c0.134-0.167,0.335-0.274,0.562-0.274h0.69h0.396h0.946H22.8H23.594z M24.042,31.78
	c0.045,0.061,0.203,0.301,0.095,0.582c-0.116,0.234-0.355,0.395-0.634,0.395H22.8h-0.396h-0.946h-0.396h-0.574
	c-0.263,0-0.492-0.144-0.616-0.355c-0.162-0.342,0.088-0.633,0.088-0.633l-0.001-0.001c0.121-0.132,0.29-0.22,0.48-0.232
	c0.488,0.062,0.987,0.093,1.488,0.093c0.513,0,1.016-0.031,1.509-0.097h0.019h0.049C23.719,31.53,23.912,31.627,24.042,31.78
	 M22.769,31.284c-0.16,0.014-1.187,0.024-1.187,0.026c-2.843-0.097-5.404-1.409-7.268-3.471c-1.868-2.061-3.033-4.875-3.077-7.979
	v-0.003c0.917,0.225,2.28,0.594,3.569,1.075c2.322,0.863,3.563,1.784,3.599,2.655c0,1.29-1.143,1.505-1.816,0.963
	c-0.367-0.351-0.564-0.942-0.109-1.586l-1.142-0.631c-0.136,0.522-0.049,1.11,0.192,1.602c0.176,0.401,0.43,0.664,0.705,0.831
	c0.002,0.002,0.003,0.003,0.005,0.004l0,0c0.508,0.304,1.082,0.282,1.365,0.179c0.04-0.015,0.153-0.061,0.183-0.071
	c0.362-0.124,1.011-0.647,0.974-1.521c-0.116-2.638-4.978-3.708-7.522-3.786l0.001-0.118c2.545-0.079,7.405-1.148,7.521-3.787
	c0.037-0.874-0.611-1.396-0.974-1.521c-0.029-0.01-0.143-0.056-0.183-0.071c-0.283-0.104-0.857-0.125-1.365,0.179l0,0
	c-0.002,0-0.004,0.001-0.005,0.002c-0.275,0.167-0.529,0.431-0.705,0.831c-0.241,0.493-0.328,1.08-0.193,1.603l1.143-0.632
	c-0.455-0.643-0.258-1.236,0.109-1.585c0.674-0.542,1.816-0.326,1.816,0.963c-0.035,0.872-1.276,1.792-3.599,2.656
	c-1.285,0.479-2.643,0.847-3.561,1.073c0.245-6.183,4.943-11.133,10.687-11.133c5.767,0,10.478,4.998,10.681,11.225
	c-0.917-0.224-2.304-0.597-3.613-1.086c-2.321-0.863-3.562-1.784-3.599-2.655c0-1.289,1.143-1.506,1.817-0.963
	c0.365,0.351,0.564,0.942,0.109,1.586l1.142,0.631c0.135-0.522,0.049-1.111-0.192-1.602c-0.177-0.4-0.431-0.664-0.706-0.831
	c-0.002-0.001-0.003-0.002-0.005-0.003h-0.001c-0.506-0.304-1.082-0.283-1.363-0.178c-0.04,0.014-0.154,0.061-0.184,0.07
	c-0.362,0.124-1.011,0.647-0.974,1.521c0.117,2.658,5.05,3.723,7.578,3.789l0.001,0.016v0.093c-2.515,0.054-7.506,1.116-7.623,3.791
	c-0.038,0.872,0.61,1.396,0.973,1.52c0.029,0.01,0.144,0.056,0.184,0.071c0.282,0.104,0.857,0.125,1.364-0.179v0
	c0.002,0,0.003-0.002,0.005-0.004c0.276-0.167,0.529-0.43,0.705-0.829c0.242-0.493,0.328-1.081,0.193-1.604l-1.142,0.631
	c0.455,0.643,0.257,1.236-0.109,1.585c-0.675,0.543-1.817,0.327-1.817-0.963c0.036-0.871,1.276-1.792,3.599-2.655
	c1.334-0.499,2.748-0.876,3.665-1.099C32.514,25.917,28.204,30.822,22.769,31.284"/>
</svg>
