<?xml version="1.0" encoding="utf-8"?>
<!-- Generator: Adobe Illustrator 15.0.2, SVG Export Plug-In . SVG Version: 6.00 Build 0)  -->
<!DOCTYPE svg PUBLIC "-//W3C//DTD SVG 1.1//EN" "http://www.w3.org/Graphics/SVG/1.1/DTD/svg11.dtd">
<svg version="1.1" id="Layer_1" xmlns="http://www.w3.org/2000/svg" xmlns:xlink="http://www.w3.org/1999/xlink" x="0px" y="0px"
	 width="175px" height="70px" viewBox="0 0 175 70" enable-background="new 0 0 175 70" xml:space="preserve">
<path fill="#DFB66E" d="M171.957,37.716c0.439-0.68,1.332-2.456,0.367-4.667c-0.035-0.083-0.08-0.159-0.119-0.239
	c-0.055-0.115-0.105-0.227-0.174-0.342c-0.01-0.008-0.014-0.011-0.025-0.018c-0.711-1.137-1.971-1.896-3.406-1.896
	c-1.893,0-3.482,1.314-3.906,3.084c-0.723-13.115-11.787-23.568-25.285-23.568c-12.623,0-23.119,9.148-25.012,21.066
	c-0.01-0.012-0.02-0.024-0.031-0.037v-0.04c-0.066-0.081-0.146-0.153-0.232-0.218c-0.328-0.312-0.771-0.506-1.256-0.506
	c-1.006,0-1.822,0.817-1.822,1.82v1.064h-1.211v-1.354c0-0.97-0.766-1.675-1.822-1.675c-1.053,0-1.818,0.705-1.818,1.675v1.354
	H5.374c-3.299,0-3.126,0.616-3.126,1.379c0,0.128-0.009,0.275,0,0.394v0.019v0.019c-0.009,0.129,0,0.257,0,0.396
	c0,0.615-0.112,1.146,1.632,1.317c0,0,1.659,0.069,1.711,0.07c-0.15,0.234-0.234,0.503-0.234,0.797v6.441
	c0,1.016,0.98,1.841,2.184,1.841c1.205,0,2.183-0.825,2.183-1.841v-6.441c0-0.294-0.083-0.563-0.232-0.797h0.322h0.791h0.627v8.017
	h0.845v-8.017h0.469h0.56h0.093h0.57h0.195c-0.159,0.248-0.246,0.534-0.246,0.849v6.646c0,1.046,0.977,1.896,2.183,1.896
	s2.188-0.851,2.188-1.896v-6.646c0-0.315-0.089-0.602-0.251-0.849h0.748h1.085v8.017h0.827v-8.017h0.028h0.009h0.551h0.012h0.082
	h0.009h0.57h0.901h0.572h0.09h0.56h0.342h81.982v1.453c0,1.004,0.816,1.82,1.818,1.82c0.508,0,0.961-0.206,1.293-0.539
	c0.158-0.147,0.283-0.327,0.365-0.531c0.105-0.23,0.164-0.481,0.164-0.75v-1.453h1.211v1.306c0,1.003,0.816,1.82,1.822,1.82
	c0.396,0,0.756-0.131,1.057-0.348c0.156-0.088,0.295-0.207,0.412-0.344c0.016-0.02,0.041-0.032,0.057-0.053v-0.027
	c0.012-0.017,0.023-0.033,0.037-0.05c2,11.793,12.432,20.813,24.969,20.813c13.484,0,24.535-10.424,25.281-23.514
	c0.416,1.779,2.006,3.117,3.91,3.117c1.205,0,2.281-0.548,3.021-1.396c0.07-0.067,0.121-0.12,0.121-0.12s0.072-0.086,0.18-0.246
	C171.936,37.754,171.947,37.735,171.957,37.716 M9.051,44.112c0,0.624-0.397,1.158-0.978,1.416c-0.223,0.089-0.606,0.184-1.03,0.01
	c-0.021-0.01-0.045-0.019-0.065-0.029c-0.021-0.011-0.042-0.021-0.06-0.032c-0.523-0.273-0.874-0.779-0.874-1.365v-6.673
	c0-0.23,0.047-0.433,0.138-0.626h0.254h0.748H7.6h0.138h0.01H8.14h0.764c0.103,0.193,0.147,0.396,0.147,0.626V44.112z
	 M15.899,46.001c-0.016,0-0.031-0.001-0.046-0.001c0.121,0,0.255-0.01,0.401-0.028C16.141,45.99,16.021,46.001,15.899,46.001
	 M17.39,44.37c0,0.714-0.52,1.309-1.231,1.507c-0.246,0.048-0.564,0.041-0.897-0.144c-0.041-0.023-0.08-0.044-0.114-0.061
	c-0.458-0.284-0.756-0.758-0.756-1.302v-6.683c0-0.331,0.121-0.625,0.303-0.874h0.551h0.085h0.008h0.551h0.01h1.186
	c0.202,0.249,0.304,0.543,0.304,0.874V44.37z M109.301,33.22v0.817v1.959v0.817v1.641c0,0.449-0.199,0.847-0.508,1.119
	c-0.105,0.081-0.666,0.472-1.307,0.161c-0.426-0.257-0.713-0.731-0.713-1.28v-1.641v-0.817v-1.959V33.22v-1.425
	c0-0.571,0.318-1.065,0.789-1.316c0.529-0.216,0.992,0.034,1.17,0.155c0.346,0.273,0.568,0.691,0.568,1.161V33.22z M117.281,35.922
	c1.955,0.486,4.729,1.248,7.371,2.233c4.967,1.847,7.623,3.816,7.697,5.682c0,2.759-2.441,3.222-3.885,2.061
	c-0.783-0.748-1.209-2.017-0.236-3.393l-2.439-1.35c-0.289,1.118-0.105,2.375,0.41,3.427c0.375,0.857,0.92,1.42,1.51,1.779
	c0.004,0.002,0.008,0.004,0.01,0.006h0.002c1.084,0.651,2.314,0.604,2.918,0.381c0.086-0.032,0.328-0.129,0.391-0.15
	c0.773-0.267,2.166-1.387,2.084-3.254c-0.244-5.562-10.34-7.865-15.846-8.094c-0.002-0.081-0.006-0.161-0.006-0.242
	c0-0.01,0.002-0.018,0.002-0.029c5.502-0.227,15.605-2.528,15.85-8.093c0.082-1.87-1.311-2.989-2.084-3.254
	c-0.062-0.021-0.305-0.12-0.391-0.151c-0.604-0.223-1.834-0.269-2.918,0.382h-0.002c-0.002,0.002-0.006,0.005-0.01,0.006
	c-0.59,0.358-1.135,0.923-1.51,1.778c-0.516,1.052-0.699,2.311-0.414,3.428l2.443-1.352c-0.973-1.375-0.547-2.643,0.236-3.392
	c1.443-1.16,3.885-0.699,3.885,2.061c-0.074,1.864-2.73,3.835-7.697,5.681c-2.643,0.986-5.42,1.75-7.375,2.235
	c0.342-12.982,10.135-23.432,22.131-23.432c11.998,0,21.789,10.443,22.137,23.419c-1.951-0.486-4.705-1.245-7.326-2.224
	c-4.967-1.847-7.623-3.816-7.699-5.681c0.002-2.759,2.441-3.222,3.889-2.061c0.785,0.749,1.207,2.016,0.232,3.393l2.443,1.351
	c0.291-1.118,0.104-2.377-0.414-3.429c-0.373-0.856-0.92-1.419-1.508-1.778c-0.002-0.001-0.004-0.004-0.008-0.006h-0.002
	c-1.086-0.651-2.316-0.605-2.92-0.382c-0.088,0.031-0.332,0.13-0.393,0.15c-0.775,0.266-2.164,1.386-2.082,3.255
	c0.24,5.547,10.285,7.851,15.803,8.091c0,0.01,0.002,0.02,0.002,0.03c0,0.081-0.006,0.163-0.008,0.245
	c-5.516,0.24-15.557,2.544-15.797,8.09c-0.082,1.87,1.307,2.989,2.082,3.254c0.064,0.021,0.305,0.119,0.393,0.151
	c0.604,0.223,1.834,0.27,2.92-0.381h0.002c0.004-0.002,0.006-0.006,0.008-0.007c0.588-0.356,1.135-0.921,1.508-1.778
	c0.518-1.052,0.705-2.309,0.414-3.427l-2.443,1.351c0.975,1.375,0.553,2.645-0.232,3.392c-1.447,1.161-3.887,0.699-3.889-2.061
	c0.076-1.865,2.732-3.835,7.699-5.682c2.619-0.977,5.369-1.735,7.322-2.221c-0.451,12.868-10.199,23.189-22.133,23.189
	C127.479,59.123,117.727,48.797,117.281,35.922 M112.877,30.519c0.01,0,0.021,0.001,0.031,0.001
	c-0.164,0.005-0.316,0.025-0.453,0.056C112.588,30.539,112.729,30.519,112.877,30.519 M112.533,39.577
	c-0.482-0.24-0.816-0.733-0.816-1.311v-1.453v-0.817v-1.959V33.22v-1.185c0-0.545,0.297-1.02,0.736-1.275
	c0.449-0.212,0.855-0.081,1.094,0.042c0.398,0.266,0.666,0.713,0.666,1.227v0.261c-0.102,0.896-0.16,1.805-0.16,2.722
	c0,0.907,0.059,1.798,0.16,2.677v0.608c0,0.371-0.139,0.702-0.357,0.959c-0.018,0.016-0.029,0.033-0.045,0.047
	c-0.031,0.032-0.066,0.062-0.1,0.092C113.566,39.5,113.092,39.793,112.533,39.577 M165.094,36.533
	c-0.154-0.33-0.658-1.609,0.021-3.013c0.693-1.208,1.984-2.03,3.484-2.03c1.014,0,1.936,0.377,2.639,0.993
	c0.041,0.036,0.086,0.08,0.135,0.128c0.072,0.069,0.139,0.145,0.203,0.22c0.629,0.72,1.422,2.121,0.389,3.916
	c-0.713,1.105-1.945,1.847-3.365,1.847C167.086,38.593,165.781,37.762,165.094,36.533"/>
<polygon fill="#DFB66E" points="141.26,21.359 136.52,49.25 137.992,48.741 142.738,20.838 "/>
</svg>
