<?xml version="1.0" encoding="utf-8"?>
<!-- Generator: Adobe Illustrator 15.0.2, SVG Export Plug-In . SVG Version: 6.00 Build 0)  -->
<!DOCTYPE svg PUBLIC "-//W3C//DTD SVG 1.1//EN" "http://www.w3.org/Graphics/SVG/1.1/DTD/svg11.dtd">
<svg version="1.1" id="Layer_1" xmlns="http://www.w3.org/2000/svg" xmlns:xlink="http://www.w3.org/1999/xlink" x="0px" y="0px"
	 width="229.576px" height="60px" viewBox="0 0 229.576 60" enable-background="new 0 0 229.576 60" xml:space="preserve">
<path fill="none" stroke="#000000" stroke-width="0.5" stroke-linecap="round" stroke-linejoin="round" d="M21.931,27.662"/>
<path fill="none" stroke="#000000" stroke-width="0.5" stroke-linecap="round" stroke-linejoin="round" d="M21.307,29.476"/>
<path fill="#FF8A00" d="M21.307,28.874c-0.392-1.35-0.993-2.886-1.725-5.509c-0.591,0.872-0.591,0.872-1.282,2.028
	c-2.735-0.007-3.132,0.015-9.625,0.016c1.775-0.136,8.045-0.754,8.999-0.826c0.862-1.381,1.467-2.293,2.06-3.23
	c0.734,1.997,0.904,2.247,1.573,4.063c2.299-8.34,2.416-8.516,3.572-13.179c0.938,5.423,1.664,10.378,2.346,15.887
	c0.572-3.545,1.374-6.811,1.915-10.429c0.479,2.364,0.85,3.983,1.284,6.597c3.385,0.245,6.735,0.741,10.262,0.966
	c-3.554,0-7.563-0.014-11.043,0.136c-0.052-1.321-0.042-1.263-0.29-2.625c-0.434,2.366-1.868,8.575-2.221,11.019
	c-0.465-3.24-2.081-13.537-2.451-16.871C23.762,20.236,22.246,25.647,21.307,28.874"/>
<path fill="none" stroke="#FF8A00" stroke-width="2" stroke-linecap="round" stroke-linejoin="round" d="M25.332,3.143
	c11.197,0,20.274,8.896,20.274,19.868c0,10.973-9.077,19.868-20.274,19.868c-11.195,0-20.272-8.895-20.272-19.868
	C5.06,12.039,14.137,3.143,25.332,3.143"/>
<g>
</g>
<g>
	<rect x="55.204" y="4.341" fill="none" width="166.528" height="33.048"/>
	<path fill="#FF8A00" d="M57.835,4.34h1.725v21.458L73.94,13.414h2.495l-10.207,8.71l10.933,14.608h-2.358l-9.936-13.292
		l-5.308,4.491v8.801h-1.725V4.34z"/>
	<path fill="#FF8A00" d="M84.646,13.414h1.725v4.99h0.091c0.302-0.877,0.732-1.656,1.293-2.336c0.559-0.68,1.209-1.262,1.95-1.747
		c0.741-0.483,1.55-0.846,2.428-1.089c0.876-0.242,1.769-0.363,2.676-0.363c1.361,0,2.519,0.167,3.471,0.499
		c0.953,0.333,1.731,0.771,2.337,1.316c0.604,0.544,1.081,1.157,1.429,1.837c0.348,0.681,0.597,1.369,0.749,2.064
		c0.15,0.696,0.241,1.369,0.271,2.019c0.03,0.651,0.046,1.218,0.046,1.702v14.426h-1.725V21.988c0-0.574-0.045-1.3-0.136-2.178
		c-0.091-0.876-0.355-1.716-0.794-2.518c-0.438-0.801-1.104-1.489-1.996-2.064c-0.893-0.574-2.125-0.862-3.697-0.862
		c-1.331,0-2.511,0.243-3.539,0.726c-1.028,0.484-1.905,1.157-2.631,2.019c-0.726,0.862-1.278,1.891-1.656,3.085
		c-0.378,1.195-0.566,2.503-0.566,3.924v12.612h-1.725V13.414z"/>
	<path fill="#FF8A00" d="M129.56,32.104h-0.091c-0.272,0.696-0.666,1.354-1.18,1.974c-0.515,0.62-1.142,1.172-1.883,1.656
		c-0.741,0.484-1.581,0.862-2.518,1.134c-0.938,0.272-1.967,0.408-3.085,0.408c-2.48,0-4.4-0.537-5.762-1.61
		s-2.041-2.729-2.041-4.968c0-1.361,0.271-2.473,0.816-3.334c0.544-0.862,1.231-1.542,2.063-2.042s1.754-0.854,2.768-1.066
		c1.013-0.211,1.988-0.363,2.927-0.454l2.676-0.227c1.24-0.091,2.216-0.234,2.927-0.431c0.71-0.196,1.247-0.468,1.61-0.816
		c0.363-0.347,0.59-0.794,0.681-1.338s0.136-1.225,0.136-2.042c0-0.635-0.121-1.225-0.362-1.769
		c-0.243-0.544-0.621-1.028-1.135-1.452c-0.515-0.423-1.18-0.756-1.996-0.998s-1.814-0.363-2.994-0.363
		c-2.087,0-3.773,0.515-5.059,1.542c-1.285,1.029-1.988,2.586-2.109,4.673h-1.724c0.12-2.57,0.944-4.499,2.473-5.784
		c1.526-1.285,3.697-1.928,6.51-1.928s4.861,0.552,6.147,1.656c1.285,1.104,1.928,2.548,1.928,4.333v13.565
		c0,0.333,0.007,0.666,0.022,0.998c0.015,0.333,0.068,0.635,0.159,0.907c0.091,0.272,0.241,0.492,0.453,0.658
		c0.212,0.167,0.515,0.25,0.907,0.25c0.303,0,0.727-0.045,1.271-0.136v1.452c-0.453,0.122-0.923,0.182-1.406,0.182
		c-0.696,0-1.247-0.091-1.656-0.272c-0.408-0.182-0.719-0.423-0.93-0.726c-0.212-0.302-0.355-0.658-0.431-1.066
		c-0.076-0.409-0.113-0.854-0.113-1.338V32.104z M129.56,23.485c-0.424,0.515-1.066,0.862-1.929,1.043
		c-0.861,0.182-1.822,0.318-2.881,0.408l-2.903,0.272c-0.847,0.091-1.693,0.22-2.54,0.386c-0.848,0.167-1.61,0.446-2.291,0.839
		c-0.681,0.394-1.232,0.93-1.656,1.611c-0.424,0.68-0.635,1.565-0.635,2.654c0,1.724,0.544,3.002,1.633,3.833
		c1.089,0.832,2.586,1.248,4.491,1.248c1.966,0,3.523-0.355,4.673-1.066c1.149-0.71,2.026-1.527,2.632-2.45
		c0.604-0.922,0.99-1.814,1.156-2.676c0.166-0.862,0.25-1.444,0.25-1.747V23.485z"/>
	<path fill="#FF8A00" d="M160.228,20.627c-0.091-1.028-0.356-1.935-0.794-2.722c-0.439-0.786-1.006-1.436-1.701-1.951
		c-0.696-0.514-1.505-0.907-2.428-1.18c-0.923-0.272-1.913-0.408-2.972-0.408c-1.451,0-2.737,0.295-3.855,0.885
		c-1.119,0.59-2.058,1.376-2.812,2.359c-0.757,0.983-1.332,2.103-1.725,3.357c-0.394,1.255-0.59,2.548-0.59,3.879
		c0,1.573,0.182,3.024,0.545,4.355c0.362,1.331,0.922,2.488,1.679,3.471c0.755,0.983,1.693,1.747,2.812,2.291
		c1.118,0.544,2.434,0.817,3.946,0.817c1.089,0,2.095-0.182,3.018-0.544c0.922-0.363,1.738-0.862,2.449-1.497
		s1.293-1.398,1.747-2.291c0.453-0.892,0.756-1.867,0.907-2.926h1.724c-0.182,1.392-0.56,2.631-1.134,3.72
		c-0.575,1.089-1.301,2.004-2.178,2.745c-0.878,0.741-1.876,1.309-2.994,1.701c-1.119,0.393-2.299,0.59-3.539,0.59
		c-1.905,0-3.531-0.34-4.876-1.021c-1.347-0.68-2.45-1.595-3.312-2.745c-0.861-1.149-1.497-2.472-1.905-3.969
		s-0.612-3.062-0.612-4.695c0-1.633,0.234-3.176,0.703-4.627s1.157-2.722,2.064-3.811s2.025-1.951,3.356-2.586
		c1.331-0.635,2.858-0.953,4.582-0.953c1.271,0,2.457,0.159,3.562,0.477c1.104,0.317,2.087,0.794,2.949,1.429
		c0.861,0.635,1.564,1.445,2.109,2.427c0.544,0.983,0.877,2.125,0.998,3.425H160.228z"/>
	<path fill="#FF8A00" d="M172.204,4.34h1.725v21.458l14.381-12.385h2.495l-10.207,8.71l10.933,14.608h-2.358l-9.936-13.292
		l-5.308,4.491v8.801h-1.725V4.34z"/>
	<path fill="#FF8A00" d="M199.106,4.34h1.725v21.458l14.381-12.385h2.495l-10.207,8.71l10.933,14.608h-2.358l-9.936-13.292
		l-5.308,4.491v8.801h-1.725V4.34z"/>
</g>
<g>
	<rect x="57.699" y="46.607" fill="none" width="166.557" height="10.377"/>
	<path fill="#FF8A00" d="M64.235,46.607v0.676h-2.901v7.643h-0.792v-7.643h-2.89v-0.676H64.235z"/>
	<path fill="#FF8A00" d="M66.565,46.607v3.344h0.022c0.141-0.365,0.389-0.658,0.746-0.879c0.357-0.222,0.749-0.332,1.177-0.332
		c0.419,0,0.771,0.054,1.055,0.163c0.283,0.109,0.511,0.262,0.682,0.46c0.171,0.198,0.291,0.441,0.361,0.729
		c0.069,0.287,0.104,0.61,0.104,0.967v3.868h-0.734v-3.751c0-0.256-0.023-0.495-0.069-0.717c-0.047-0.221-0.129-0.414-0.245-0.577
		s-0.273-0.292-0.472-0.384c-0.198-0.093-0.444-0.14-0.74-0.14c-0.295,0-0.557,0.053-0.786,0.157
		c-0.229,0.105-0.424,0.249-0.583,0.431c-0.159,0.183-0.283,0.4-0.372,0.652c-0.09,0.253-0.139,0.526-0.146,0.822v3.507h-0.734
		v-8.319H66.565z"/>
	<path fill="#FF8A00" d="M73.608,52.94c0.073,0.284,0.191,0.538,0.355,0.763c0.163,0.225,0.368,0.412,0.617,0.559
		c0.248,0.147,0.548,0.221,0.897,0.221c0.535,0,0.955-0.14,1.258-0.419c0.303-0.279,0.513-0.652,0.629-1.118H78.1
		c-0.155,0.684-0.441,1.211-0.856,1.584c-0.416,0.373-1.004,0.559-1.765,0.559c-0.475,0-0.884-0.083-1.229-0.25
		s-0.628-0.396-0.845-0.688c-0.218-0.291-0.379-0.629-0.483-1.014c-0.105-0.384-0.157-0.79-0.157-1.217
		c0-0.396,0.052-0.785,0.157-1.165c0.104-0.381,0.266-0.721,0.483-1.02c0.217-0.299,0.499-0.54,0.845-0.723
		c0.346-0.182,0.755-0.273,1.229-0.273c0.481,0,0.893,0.097,1.234,0.291c0.342,0.194,0.619,0.449,0.833,0.763
		s0.367,0.676,0.46,1.083c0.094,0.408,0.133,0.821,0.117,1.241h-4.626C73.497,52.382,73.534,52.656,73.608,52.94z M77.243,50.697
		c-0.09-0.256-0.216-0.483-0.379-0.682c-0.163-0.198-0.361-0.357-0.594-0.478c-0.233-0.12-0.497-0.181-0.792-0.181
		c-0.304,0-0.571,0.061-0.805,0.181c-0.232,0.121-0.431,0.28-0.594,0.478c-0.163,0.198-0.294,0.427-0.391,0.688
		s-0.161,0.526-0.192,0.798h3.892C77.381,51.221,77.332,50.953,77.243,50.697z"/>
	<path fill="#FF8A00" d="M88.12,46.607c0.373,0,0.711,0.052,1.014,0.157s0.563,0.26,0.78,0.466c0.218,0.206,0.385,0.456,0.501,0.751
		c0.117,0.295,0.175,0.629,0.175,1.002c0,0.373-0.058,0.707-0.175,1.002c-0.116,0.295-0.283,0.546-0.501,0.751
		c-0.217,0.206-0.478,0.361-0.78,0.466c-0.303,0.105-0.641,0.157-1.014,0.157h-2.901v3.565h-0.792v-8.319H88.12z M87.945,50.685
		c0.552,0,0.998-0.14,1.34-0.419c0.342-0.279,0.513-0.707,0.513-1.281s-0.171-1.002-0.513-1.282s-0.788-0.419-1.34-0.419h-2.727
		v3.402H87.945z"/>
	<path fill="#FF8A00" d="M96.788,54.926v-1.083h-0.023c-0.194,0.404-0.476,0.713-0.845,0.926s-0.778,0.32-1.229,0.32
		c-0.38,0-0.704-0.052-0.973-0.157c-0.268-0.105-0.485-0.254-0.652-0.449c-0.167-0.194-0.289-0.431-0.367-0.71
		c-0.077-0.28-0.116-0.598-0.116-0.956v-3.903h0.734v3.915c0.015,0.544,0.142,0.956,0.378,1.235c0.237,0.28,0.646,0.419,1.229,0.419
		c0.318,0,0.59-0.068,0.815-0.204s0.412-0.316,0.56-0.542c0.147-0.225,0.256-0.483,0.326-0.775c0.069-0.291,0.104-0.588,0.104-0.891
		v-3.157h0.734v6.012H96.788z"/>
	<path fill="#FF8A00" d="M100.562,46.607v8.319h-0.733v-8.319H100.562z"/>
	<path fill="#FF8A00" d="M106.4,50.085c-0.085-0.167-0.2-0.305-0.344-0.414c-0.144-0.108-0.309-0.188-0.495-0.239
		c-0.187-0.05-0.384-0.076-0.594-0.076c-0.163,0-0.328,0.018-0.495,0.053c-0.167,0.035-0.32,0.093-0.461,0.175
		c-0.14,0.082-0.252,0.188-0.338,0.32c-0.085,0.132-0.128,0.295-0.128,0.489c0,0.163,0.041,0.301,0.123,0.414
		c0.081,0.113,0.184,0.208,0.309,0.286c0.124,0.078,0.26,0.142,0.407,0.192c0.147,0.051,0.284,0.091,0.408,0.123l0.979,0.221
		c0.21,0.031,0.417,0.087,0.623,0.169s0.389,0.188,0.548,0.32c0.159,0.132,0.289,0.295,0.391,0.49
		c0.101,0.194,0.151,0.423,0.151,0.687c0,0.327-0.074,0.604-0.222,0.833c-0.147,0.229-0.336,0.416-0.565,0.56
		c-0.229,0.144-0.487,0.247-0.774,0.309s-0.57,0.093-0.851,0.093c-0.707,0-1.279-0.167-1.719-0.501
		c-0.438-0.334-0.689-0.87-0.751-1.608h0.733c0.031,0.497,0.212,0.872,0.542,1.125s0.74,0.378,1.229,0.378
		c0.179,0,0.363-0.019,0.554-0.058c0.189-0.039,0.366-0.105,0.53-0.198c0.163-0.093,0.297-0.211,0.401-0.355
		c0.104-0.144,0.157-0.321,0.157-0.53c0-0.179-0.037-0.328-0.11-0.449c-0.074-0.12-0.173-0.221-0.297-0.303
		c-0.125-0.082-0.267-0.149-0.426-0.204c-0.159-0.054-0.32-0.101-0.483-0.14l-0.943-0.21c-0.241-0.062-0.463-0.134-0.664-0.215
		c-0.202-0.082-0.379-0.183-0.53-0.303c-0.151-0.121-0.271-0.268-0.355-0.443c-0.086-0.175-0.128-0.391-0.128-0.647
		c0-0.303,0.067-0.563,0.203-0.78s0.312-0.392,0.53-0.524c0.218-0.132,0.461-0.229,0.729-0.292c0.268-0.062,0.534-0.093,0.798-0.093
		c0.303,0,0.585,0.039,0.845,0.116c0.261,0.078,0.489,0.198,0.688,0.361s0.355,0.365,0.472,0.606
		c0.117,0.241,0.183,0.524,0.198,0.851h-0.734C106.532,50.448,106.486,50.252,106.4,50.085z"/>
	<path fill="#FF8A00" d="M110.054,52.94c0.073,0.284,0.191,0.538,0.355,0.763c0.163,0.225,0.368,0.412,0.617,0.559
		c0.248,0.147,0.548,0.221,0.897,0.221c0.535,0,0.955-0.14,1.258-0.419c0.303-0.279,0.513-0.652,0.629-1.118h0.734
		c-0.155,0.684-0.441,1.211-0.856,1.584c-0.416,0.373-1.004,0.559-1.765,0.559c-0.475,0-0.884-0.083-1.229-0.25
		s-0.628-0.396-0.845-0.688c-0.218-0.291-0.379-0.629-0.483-1.014c-0.105-0.384-0.157-0.79-0.157-1.217
		c0-0.396,0.052-0.785,0.157-1.165c0.104-0.381,0.266-0.721,0.483-1.02c0.217-0.299,0.499-0.54,0.845-0.723
		c0.346-0.182,0.755-0.273,1.229-0.273c0.481,0,0.893,0.097,1.234,0.291c0.342,0.194,0.619,0.449,0.833,0.763
		s0.367,0.676,0.46,1.083c0.094,0.408,0.133,0.821,0.117,1.241h-4.626C109.942,52.382,109.979,52.656,110.054,52.94z
		 M113.688,50.697c-0.09-0.256-0.216-0.483-0.379-0.682c-0.163-0.198-0.361-0.357-0.594-0.478c-0.233-0.12-0.497-0.181-0.792-0.181
		c-0.304,0-0.571,0.061-0.805,0.181c-0.232,0.121-0.431,0.28-0.594,0.478c-0.163,0.198-0.294,0.427-0.391,0.688
		s-0.161,0.526-0.192,0.798h3.892C113.826,51.221,113.777,50.953,113.688,50.697z"/>
	<path fill="#FF8A00" d="M124.488,48.996c0.354,0.171,0.651,0.4,0.892,0.687c0.241,0.288,0.424,0.624,0.548,1.008
		c0.124,0.385,0.187,0.794,0.187,1.229s-0.062,0.845-0.187,1.229c-0.124,0.385-0.307,0.721-0.548,1.008
		c-0.24,0.288-0.538,0.515-0.892,0.682s-0.759,0.25-1.217,0.25c-0.459,0-0.864-0.083-1.218-0.25s-0.65-0.394-0.892-0.682
		c-0.24-0.287-0.423-0.623-0.547-1.008c-0.125-0.384-0.187-0.794-0.187-1.229s0.062-0.845,0.187-1.229
		c0.124-0.384,0.307-0.72,0.547-1.008c0.241-0.287,0.538-0.516,0.892-0.687s0.759-0.256,1.218-0.256
		C123.729,48.74,124.135,48.825,124.488,48.996z M122.351,49.579c-0.264,0.147-0.483,0.342-0.658,0.583s-0.307,0.515-0.396,0.821
		c-0.089,0.307-0.134,0.62-0.134,0.938s0.045,0.631,0.134,0.938c0.09,0.307,0.222,0.581,0.396,0.821s0.395,0.435,0.658,0.583
		c0.265,0.147,0.571,0.221,0.921,0.221s0.656-0.074,0.92-0.221c0.265-0.147,0.483-0.342,0.658-0.583s0.307-0.515,0.396-0.821
		c0.089-0.307,0.134-0.62,0.134-0.938s-0.045-0.631-0.134-0.938c-0.09-0.307-0.222-0.581-0.396-0.821s-0.394-0.435-0.658-0.583
		c-0.264-0.147-0.57-0.222-0.92-0.222S122.615,49.431,122.351,49.579z"/>
	<path fill="#FF8A00" d="M129.307,49.532v5.395h-0.734v-5.395h-1.024v-0.617h1.024v-0.548c0-0.256,0.02-0.493,0.059-0.711
		c0.039-0.217,0.112-0.403,0.222-0.559c0.108-0.155,0.258-0.275,0.448-0.361c0.19-0.085,0.433-0.128,0.729-0.128
		c0.108,0,0.21,0.004,0.303,0.012s0.198,0.02,0.314,0.035v0.629c-0.101-0.016-0.194-0.029-0.279-0.041
		c-0.086-0.011-0.171-0.017-0.257-0.017c-0.202,0-0.357,0.031-0.466,0.093c-0.108,0.062-0.188,0.146-0.238,0.251
		c-0.051,0.104-0.08,0.227-0.088,0.367s-0.012,0.292-0.012,0.455v0.524h1.188v0.617H129.307z"/>
	<path fill="#FF8A00" d="M135.563,46.607h0.932l2.738,4.218l2.727-4.218h0.943l-3.285,4.894v3.425h-0.793v-3.425L135.563,46.607z"/>
	<path fill="#FF8A00" d="M147.138,48.996c0.354,0.171,0.651,0.4,0.892,0.687c0.241,0.288,0.424,0.624,0.548,1.008
		c0.124,0.385,0.187,0.794,0.187,1.229s-0.062,0.845-0.187,1.229c-0.124,0.385-0.307,0.721-0.548,1.008
		c-0.24,0.288-0.538,0.515-0.892,0.682s-0.759,0.25-1.217,0.25c-0.459,0-0.864-0.083-1.218-0.25s-0.65-0.394-0.892-0.682
		c-0.24-0.287-0.423-0.623-0.547-1.008c-0.125-0.384-0.187-0.794-0.187-1.229s0.062-0.845,0.187-1.229
		c0.124-0.384,0.307-0.72,0.547-1.008c0.241-0.287,0.538-0.516,0.892-0.687s0.759-0.256,1.218-0.256
		C146.379,48.74,146.784,48.825,147.138,48.996z M145,49.579c-0.264,0.147-0.483,0.342-0.658,0.583s-0.307,0.515-0.396,0.821
		c-0.089,0.307-0.134,0.62-0.134,0.938s0.045,0.631,0.134,0.938c0.09,0.307,0.222,0.581,0.396,0.821s0.395,0.435,0.658,0.583
		c0.265,0.147,0.571,0.221,0.921,0.221s0.656-0.074,0.92-0.221c0.265-0.147,0.483-0.342,0.658-0.583s0.307-0.515,0.396-0.821
		c0.089-0.307,0.134-0.62,0.134-0.938s-0.045-0.631-0.134-0.938c-0.09-0.307-0.222-0.581-0.396-0.821s-0.394-0.435-0.658-0.583
		c-0.264-0.147-0.57-0.222-0.92-0.222S145.265,49.431,145,49.579z"/>
	<path fill="#FF8A00" d="M155.021,54.926v-1.083h-0.023c-0.194,0.404-0.476,0.713-0.845,0.926s-0.778,0.32-1.229,0.32
		c-0.38,0-0.704-0.052-0.973-0.157c-0.268-0.105-0.485-0.254-0.652-0.449c-0.167-0.194-0.289-0.431-0.367-0.71
		c-0.077-0.28-0.116-0.598-0.116-0.956v-3.903h0.734v3.915c0.015,0.544,0.142,0.956,0.378,1.235c0.237,0.28,0.646,0.419,1.229,0.419
		c0.318,0,0.59-0.068,0.815-0.204s0.412-0.316,0.56-0.542c0.147-0.225,0.256-0.483,0.326-0.775c0.069-0.291,0.104-0.588,0.104-0.891
		v-3.157h0.734v6.012H155.021z"/>
	<path fill="#FF8A00" d="M158.726,48.915v1.41h0.023c0.187-0.489,0.476-0.866,0.868-1.13c0.392-0.264,0.859-0.384,1.403-0.361v0.734
		c-0.334-0.016-0.637,0.029-0.908,0.134c-0.272,0.105-0.507,0.254-0.705,0.449s-0.352,0.425-0.46,0.693
		c-0.109,0.268-0.164,0.561-0.164,0.879v3.204h-0.733v-6.012H158.726z"/>
	<path fill="#FF8A00" d="M172.771,48.268c-0.159-0.252-0.354-0.464-0.583-0.635c-0.229-0.171-0.481-0.301-0.757-0.391
		c-0.276-0.089-0.565-0.134-0.868-0.134c-0.552,0-1.025,0.105-1.422,0.314c-0.396,0.21-0.72,0.488-0.973,0.833
		c-0.252,0.346-0.438,0.736-0.559,1.171c-0.121,0.435-0.181,0.882-0.181,1.34c0,0.451,0.06,0.896,0.181,1.334
		c0.12,0.439,0.307,0.831,0.559,1.177c0.253,0.346,0.577,0.623,0.973,0.833c0.396,0.209,0.87,0.314,1.422,0.314
		c0.389,0,0.738-0.07,1.049-0.21c0.311-0.14,0.578-0.33,0.804-0.571c0.226-0.241,0.408-0.522,0.548-0.845
		c0.14-0.322,0.229-0.67,0.268-1.042h0.792c-0.054,0.513-0.175,0.975-0.36,1.386c-0.187,0.412-0.428,0.761-0.723,1.049
		c-0.295,0.287-0.643,0.509-1.043,0.664s-0.845,0.233-1.334,0.233c-0.652,0-1.226-0.119-1.719-0.355s-0.902-0.553-1.229-0.949
		c-0.327-0.396-0.571-0.854-0.734-1.375s-0.245-1.068-0.245-1.643c0-0.575,0.082-1.122,0.245-1.643s0.407-0.98,0.734-1.381
		c0.326-0.4,0.735-0.718,1.229-0.955s1.066-0.355,1.719-0.355c0.396,0,0.782,0.058,1.159,0.175s0.719,0.29,1.025,0.519
		s0.563,0.511,0.769,0.845c0.206,0.334,0.336,0.718,0.391,1.153h-0.792C173.044,48.806,172.93,48.52,172.771,48.268z"/>
	<path fill="#FF8A00" d="M179.819,48.996c0.354,0.171,0.651,0.4,0.892,0.687c0.241,0.288,0.424,0.624,0.548,1.008
		c0.124,0.385,0.187,0.794,0.187,1.229s-0.062,0.845-0.187,1.229c-0.124,0.385-0.307,0.721-0.548,1.008
		c-0.24,0.288-0.538,0.515-0.892,0.682s-0.759,0.25-1.217,0.25c-0.459,0-0.864-0.083-1.218-0.25s-0.65-0.394-0.892-0.682
		c-0.24-0.287-0.423-0.623-0.547-1.008c-0.125-0.384-0.187-0.794-0.187-1.229s0.062-0.845,0.187-1.229
		c0.124-0.384,0.307-0.72,0.547-1.008c0.241-0.287,0.538-0.516,0.892-0.687s0.759-0.256,1.218-0.256
		C179.061,48.74,179.466,48.825,179.819,48.996z M177.682,49.579c-0.264,0.147-0.483,0.342-0.658,0.583s-0.307,0.515-0.396,0.821
		c-0.089,0.307-0.134,0.62-0.134,0.938s0.045,0.631,0.134,0.938c0.09,0.307,0.222,0.581,0.396,0.821s0.395,0.435,0.658,0.583
		c0.265,0.147,0.571,0.221,0.921,0.221s0.656-0.074,0.92-0.221c0.265-0.147,0.483-0.342,0.658-0.583s0.307-0.515,0.396-0.821
		c0.089-0.307,0.134-0.62,0.134-0.938s-0.045-0.631-0.134-0.938c-0.09-0.307-0.222-0.581-0.396-0.821s-0.394-0.435-0.658-0.583
		c-0.264-0.147-0.57-0.222-0.92-0.222S177.946,49.431,177.682,49.579z"/>
	<path fill="#FF8A00" d="M184.183,48.915v1.013h0.035c0.193-0.373,0.448-0.664,0.763-0.874c0.314-0.21,0.717-0.314,1.206-0.314
		c0.396,0,0.755,0.097,1.077,0.291c0.322,0.194,0.538,0.489,0.647,0.886c0.179-0.396,0.442-0.691,0.792-0.886
		c0.35-0.194,0.723-0.291,1.118-0.291c1.328,0,1.992,0.703,1.992,2.108v4.078h-0.733v-4.043c0-0.497-0.105-0.875-0.314-1.136
		c-0.21-0.26-0.579-0.391-1.107-0.391c-0.318,0-0.582,0.061-0.792,0.181c-0.21,0.121-0.377,0.282-0.501,0.483
		c-0.124,0.202-0.212,0.433-0.262,0.693c-0.051,0.26-0.076,0.53-0.076,0.81v3.402h-0.734v-4.078c0-0.202-0.021-0.394-0.063-0.577
		c-0.043-0.182-0.113-0.341-0.21-0.478c-0.098-0.136-0.228-0.243-0.391-0.32s-0.361-0.117-0.594-0.117
		c-0.311,0-0.581,0.057-0.81,0.169c-0.229,0.113-0.416,0.268-0.56,0.466c-0.144,0.198-0.251,0.431-0.32,0.699
		c-0.07,0.268-0.105,0.562-0.105,0.88v3.355h-0.733v-6.012H184.183z"/>
	<path fill="#FF8A00" d="M194.854,48.915v1.142h0.023c0.171-0.419,0.448-0.744,0.833-0.973c0.384-0.229,0.821-0.343,1.311-0.343
		c0.458,0,0.856,0.085,1.194,0.256s0.619,0.402,0.845,0.693c0.225,0.292,0.392,0.629,0.501,1.014
		c0.108,0.385,0.163,0.791,0.163,1.218s-0.055,0.833-0.163,1.217c-0.109,0.385-0.276,0.723-0.501,1.014
		c-0.226,0.292-0.507,0.521-0.845,0.688s-0.736,0.25-1.194,0.25c-0.218,0-0.436-0.027-0.652-0.082
		c-0.218-0.054-0.42-0.136-0.606-0.245c-0.186-0.109-0.352-0.245-0.495-0.408s-0.254-0.354-0.332-0.571h-0.023v3.356h-0.733v-8.226
		H194.854z M198.88,50.994c-0.074-0.307-0.19-0.581-0.35-0.821s-0.363-0.437-0.611-0.588c-0.249-0.152-0.548-0.228-0.897-0.228
		c-0.404,0-0.742,0.07-1.014,0.21c-0.272,0.14-0.489,0.326-0.652,0.559s-0.278,0.505-0.344,0.815c-0.066,0.311-0.1,0.637-0.1,0.979
		c0,0.311,0.037,0.62,0.111,0.926c0.073,0.307,0.194,0.581,0.361,0.821s0.384,0.437,0.652,0.588
		c0.268,0.151,0.596,0.227,0.984,0.227c0.35,0,0.648-0.076,0.897-0.227c0.248-0.151,0.452-0.348,0.611-0.588s0.275-0.515,0.35-0.821
		c0.073-0.307,0.11-0.616,0.11-0.926S198.953,51.301,198.88,50.994z"/>
	<path fill="#FF8A00" d="M201.984,49.846c0.124-0.256,0.293-0.466,0.507-0.629s0.464-0.284,0.751-0.361
		c0.288-0.078,0.606-0.116,0.956-0.116c0.264,0,0.528,0.025,0.792,0.076c0.264,0.05,0.501,0.146,0.711,0.285
		c0.21,0.14,0.38,0.336,0.513,0.588c0.132,0.252,0.198,0.581,0.198,0.985v3.192c0,0.295,0.144,0.442,0.431,0.442
		c0.085,0,0.163-0.015,0.233-0.046v0.618c-0.086,0.016-0.162,0.027-0.228,0.035c-0.066,0.008-0.149,0.012-0.25,0.012
		c-0.187,0-0.337-0.025-0.449-0.076c-0.112-0.05-0.2-0.123-0.262-0.216c-0.062-0.093-0.104-0.204-0.123-0.332
		c-0.019-0.128-0.028-0.27-0.028-0.425h-0.023c-0.133,0.194-0.267,0.367-0.402,0.519c-0.136,0.152-0.287,0.278-0.454,0.379
		s-0.357,0.179-0.571,0.233s-0.468,0.082-0.763,0.082c-0.28,0-0.542-0.033-0.787-0.099c-0.244-0.066-0.458-0.17-0.641-0.314
		c-0.183-0.144-0.326-0.326-0.431-0.548c-0.105-0.221-0.157-0.483-0.157-0.786c0-0.419,0.093-0.748,0.279-0.984
		c0.187-0.237,0.433-0.417,0.74-0.542c0.307-0.124,0.652-0.211,1.037-0.262c0.384-0.05,0.774-0.099,1.171-0.146
		c0.155-0.016,0.291-0.035,0.407-0.058c0.116-0.023,0.214-0.064,0.291-0.123c0.078-0.058,0.139-0.138,0.181-0.239
		c0.043-0.101,0.064-0.233,0.064-0.396c0-0.249-0.041-0.453-0.122-0.612c-0.082-0.159-0.194-0.286-0.338-0.379
		c-0.145-0.093-0.311-0.157-0.501-0.192c-0.19-0.035-0.395-0.053-0.612-0.053c-0.466,0-0.847,0.111-1.142,0.332
		c-0.295,0.222-0.45,0.577-0.466,1.066h-0.734C201.786,50.406,201.86,50.103,201.984,49.846z M205.654,51.641
		c-0.047,0.085-0.136,0.147-0.268,0.187c-0.133,0.039-0.249,0.066-0.35,0.082c-0.311,0.054-0.632,0.103-0.961,0.146
		c-0.331,0.043-0.632,0.107-0.903,0.192c-0.272,0.085-0.495,0.208-0.67,0.367S202.24,53,202.24,53.295
		c0,0.187,0.037,0.352,0.111,0.496c0.073,0.144,0.173,0.268,0.297,0.373s0.268,0.185,0.431,0.239
		c0.163,0.055,0.33,0.082,0.501,0.082c0.28,0,0.548-0.042,0.805-0.128c0.256-0.085,0.479-0.21,0.67-0.373
		c0.189-0.163,0.342-0.361,0.454-0.594c0.112-0.233,0.169-0.497,0.169-0.792v-0.956H205.654z"/>
	<path fill="#FF8A00" d="M209.57,48.915v1.037h0.022c0.141-0.365,0.389-0.658,0.746-0.879c0.357-0.222,0.749-0.332,1.177-0.332
		c0.419,0,0.771,0.054,1.055,0.163c0.283,0.109,0.511,0.262,0.682,0.46c0.171,0.198,0.291,0.441,0.361,0.729
		c0.069,0.287,0.104,0.61,0.104,0.967v3.868h-0.734v-3.751c0-0.256-0.023-0.495-0.069-0.717c-0.047-0.221-0.129-0.414-0.245-0.577
		s-0.273-0.292-0.472-0.384c-0.198-0.093-0.444-0.14-0.74-0.14c-0.295,0-0.557,0.053-0.786,0.157
		c-0.229,0.105-0.424,0.249-0.583,0.431c-0.159,0.183-0.283,0.4-0.372,0.652c-0.09,0.253-0.139,0.526-0.146,0.822v3.507h-0.734
		v-6.012H209.57z"/>
	<path fill="#FF8A00" d="M216.176,48.915l1.98,5.126l1.853-5.126h0.734l-2.609,6.92c-0.109,0.257-0.21,0.468-0.304,0.636
		c-0.093,0.166-0.196,0.299-0.309,0.396s-0.244,0.167-0.396,0.21c-0.152,0.043-0.344,0.064-0.577,0.064
		c-0.147-0.008-0.262-0.014-0.344-0.018c-0.081-0.004-0.153-0.018-0.216-0.041v-0.617c0.086,0.015,0.169,0.028,0.251,0.04
		c0.081,0.012,0.165,0.018,0.25,0.018c0.163,0,0.298-0.023,0.402-0.069c0.104-0.047,0.196-0.111,0.273-0.193
		c0.078-0.081,0.144-0.18,0.198-0.296s0.112-0.245,0.175-0.385l0.257-0.676l-2.4-5.988H216.176z"/>
</g>
</svg>
