<?xml version="1.0" encoding="utf-8"?>
<!-- Generator: Adobe Illustrator 15.0.2, SVG Export Plug-In . SVG Version: 6.00 Build 0)  -->
<!DOCTYPE svg PUBLIC "-//W3C//DTD SVG 1.1//EN" "http://www.w3.org/Graphics/SVG/1.1/DTD/svg11.dtd">
<svg version="1.1" id="Layer_1" xmlns="http://www.w3.org/2000/svg" xmlns:xlink="http://www.w3.org/1999/xlink" x="0px" y="0px"
	 width="70px" height="70px" viewBox="0 0 70 70" enable-background="new 0 0 70 70" xml:space="preserve">
<path fill="#5C4856" d="M59.28,59.762h-48.56c-0.364,0-0.658-0.291-0.658-0.656v-48.56c0-0.362,0.294-0.658,0.658-0.658h48.56
	c0.362,0,0.657,0.296,0.657,0.658v48.56C59.938,59.471,59.643,59.762,59.28,59.762 M11.38,58.447h47.242V11.205H11.38V58.447z"/>
<polygon fill="#5C4856" points="32.881,43.225 32.842,43.455 33.793,43.029 36.549,26.823 36.587,26.587 35.636,27.028 "/>
<path fill="#5C4856" d="M35.86,59.033l-0.009-4.969h0.721c0.652,0,1.183-0.533,1.183-1.188c0-0.316-0.124-0.615-0.345-0.836
	c-0.099-0.105-0.219-0.188-0.352-0.242c-0.155-0.068-0.32-0.104-0.486-0.104h-0.721V51.24h0.635c0.652,0,1.183-0.531,1.183-1.186
	c0-0.266-0.092-0.533-0.254-0.73c-0.013-0.025-0.031-0.051-0.049-0.07c6.991-1.27,12.037-7.225,12.037-14.252
	c0-7.401-5.748-13.646-13.174-14.409c0.72-0.441,1.179-1.234,1.179-2.091c0-0.851-0.453-1.652-1.185-2.097l-0.022-0.016
	c-0.026-0.017-0.626-0.411-1.512-0.411c-0.398,0-0.795,0.082-1.176,0.24c-0.076,0.03-0.152,0.063-0.236,0.107l-0.069,0.036v0.002
	c-0.772,0.439-1.248,1.252-1.248,2.138c0,0.858,0.458,1.65,1.177,2.091c-7.427,0.765-13.178,7.008-13.178,14.409
	c0,6.979,5.215,13.075,12.168,14.272c-0.19,0.221-0.294,0.492-0.294,0.781c0,0.654,0.531,1.186,1.184,1.186h0.493v0.455h-0.663
	c-0.637,0-1.099,0.496-1.099,1.182c0,0.688,0.462,1.188,1.099,1.188h0.663v4.969H35.86z M36.681,53.479h-3.874
	c-0.273,0-0.523-0.152-0.648-0.381c-0.104-0.254,0.021-0.479,0.073-0.553c0.142-0.182,0.352-0.285,0.575-0.285h3.874
	c0.212,0,0.413,0.092,0.55,0.246c0.039,0.055,0.23,0.32,0.085,0.619C37.184,53.346,36.943,53.479,36.681,53.479 M36.572,50.602
	h-3.625c-0.261,0-0.503-0.139-0.629-0.355c-0.155-0.328,0.08-0.613,0.088-0.627l0.023-0.021c0.123-0.127,0.284-0.197,0.454-0.213
	c1.201,0.154,2.482,0.148,3.63-0.008h0.059c0.21,0,0.412,0.094,0.546,0.254c0.05,0.066,0.204,0.307,0.102,0.566
	C37.094,50.445,36.845,50.602,36.572,50.602 M35.678,48.834c-0.115,0.008-0.649,0.018-1.005,0.023
	c-0.202,0.002-0.327,0.006-0.407,0.012v-0.004c-3.27-0.113-6.339-1.582-8.646-4.135c-2.282-2.514-3.581-5.838-3.665-9.348
	c1.092,0.271,2.644,0.7,4.121,1.249c2.696,1.002,4.202,2.098,4.243,3.078c0,1.004-0.608,1.363-1.128,1.363
	c-0.305,0-0.605-0.109-0.843-0.301c-0.188-0.18-0.755-0.84-0.116-1.742l0.082-0.115l-1.636-0.906l-0.042,0.16
	c-0.165,0.631-0.075,1.367,0.238,2.004c0.203,0.465,0.505,0.82,0.903,1.062c0.436,0.264,0.871,0.316,1.16,0.316
	c0.22,0,0.431-0.031,0.59-0.094l0.088-0.033c0.051-0.02,0.107-0.041,0.129-0.047c0.511-0.176,1.303-0.863,1.256-1.955
	c-0.132-3.014-5.165-4.331-8.283-4.615c3.117-0.288,8.151-1.605,8.283-4.618c0.047-1.096-0.745-1.78-1.259-1.955
	c-0.022-0.006-0.085-0.03-0.139-0.054l-0.075-0.028c-0.16-0.059-0.37-0.093-0.589-0.093c-0.288,0-0.725,0.055-1.135,0.306
	l-0.047,0.018l-0.008,0.013c-0.381,0.236-0.673,0.586-0.873,1.036c-0.315,0.645-0.405,1.379-0.241,2.014l0.041,0.157l1.638-0.907
	L28.23,30.58c-0.64-0.903-0.073-1.561,0.107-1.734c0.246-0.196,0.55-0.306,0.852-0.306c0.52,0,1.128,0.356,1.128,1.36
	c-0.041,0.984-1.547,2.078-4.243,3.079c-1.457,0.544-3.006,0.972-4.102,1.246c0.371-7.356,5.927-13.096,12.711-13.096
	c6.83,0,12.383,5.788,12.707,13.207c-1.113-0.277-2.688-0.709-4.169-1.263c-2.694-1.003-4.204-2.095-4.244-3.074
	c0.002-1.008,0.611-1.365,1.13-1.365c0.305,0,0.607,0.109,0.843,0.299c0.188,0.182,0.753,0.842,0.118,1.743l-0.085,0.116l1.64,0.904
	l0.04-0.159c0.164-0.635,0.075-1.369-0.238-2.007c-0.202-0.462-0.504-0.816-0.879-1.041l-0.041-0.036h-0.014
	c-0.426-0.246-0.849-0.299-1.129-0.299c-0.223,0-0.43,0.032-0.589,0.091c-0.024,0.01-0.07,0.027-0.119,0.045
	c-0.04,0.018-0.084,0.035-0.1,0.039c-0.509,0.176-1.304,0.86-1.256,1.954c0.133,3.014,5.09,4.321,8.231,4.612
	c-1.358,0.121-3.129,0.441-4.702,1.046c-2.278,0.879-3.518,2.114-3.583,3.573c-0.048,1.092,0.744,1.775,1.252,1.949l0.083,0.033
	c0.052,0.02,0.112,0.045,0.138,0.053c0.161,0.061,0.372,0.092,0.589,0.092c0.284,0,0.718-0.053,1.147-0.307l0.02-0.012
	c0.393-0.238,0.695-0.592,0.895-1.051c0.317-0.648,0.404-1.381,0.241-2.014l-0.04-0.156l-1.638,0.902l0.083,0.119
	c0.639,0.9,0.071,1.561-0.108,1.732c-0.249,0.195-0.549,0.307-0.853,0.307c-0.517,0-1.128-0.359-1.128-1.361
	c0.042-0.982,1.547-2.078,4.244-3.078c1.523-0.568,3.115-1.002,4.231-1.279C47.2,42.537,42.185,48.279,35.678,48.834 M35.648,20.313
	c-0.238,0.129-0.522,0.193-0.844,0.193c-0.035,0-0.07-0.001-0.115-0.002c-0.737-0.033-1.149-0.325-1.326-0.492
	c-0.395-0.41-0.612-0.946-0.612-1.51c0-0.54,0.199-1.059,0.544-1.449l0.029-0.025c0.012-0.013,0.023-0.024,0.051-0.053
	c0.182-0.178,0.672-0.59,1.32-0.59c0.424,0,0.841,0.181,1.237,0.531c0.438,0.421,0.678,0.983,0.678,1.586
	C36.61,19.232,36.246,19.912,35.648,20.313"/>
</svg>
